<svg xmlns="http://www.w3.org/2000/svg" xmlns:xlink="http://www.w3.org/1999/xlink" version="1.1" id="layer" x="0px" y="0px" viewBox="0 0 652 652" style="enable-background:new 0 0 652 652;" xml:space="preserve">
<style type="text/css">
	.st0{fill:#ffffff;}
</style>
<g>
	<g>
		<g>
			<path class="st0" d="M410.6,325.5c-1.3,0.5-3.5,1-3.7,1.5c-0.1,0.6-1.2,1.4-1.8,1.9s0.2,1.4,0.9,1c0.6-0.5,8.1-4.8,8.5-5.2     c0.4-0.5,0.8-1.3,0.3-0.9C414.8,323.8,411.7,324.9,410.6,325.5z" fill="#ffffff"/>
			<path class="st0" d="M413.3,329.1c0,0-0.8-0.4-0.4,0.6c0,0-1.8,1.5-3.6,1.4s-3.9,1.6-3.5,2c0.5,0.4,5.4-0.3,6.2-1.3     c0.8-1,0.8-1.5,0.8-1.5S414.8,330.1,413.3,329.1z" fill="#ffffff"/>
			<path class="st0" d="M415.3,317.7c0,0-1.8,0.5-2.5,1.2c-0.6,0.6-1.1-0.1-1.7,0.7c-0.6,0.6-5.5,4.2-4.5,4.6     c0.9,0.3,1.7-0.4,2.1-0.7c0.3-0.5,0.9,0,1.5-0.5c0.6-0.5,3.4-3.3,3.9-3.4C414.6,319.3,416.5,317.9,415.3,317.7z" fill="#ffffff"/>
			<path class="st0" d="M224.4,199.6c1.8-1.1,2.2-3.1,3.6-3.4c1.4-0.5,2.5-0.7,3.1-1.6c0.5-1.1,1.8-1.8,1-2.4c-0.8-0.5-1.8,0-1.8,0     s-3,2-4.4,3c-1.5,1.1-3.5,3.3-3.5,3.9C222.6,199.2,222.7,200.8,224.4,199.6z" fill="#ffffff"/>
			<path class="st0" d="M221.4,206.6c0.5-0.8,0.9-1,2-1.5c1.3-0.5,1.3-0.6,2-1.8c0.5-1.1,2.4-4.2,0.7-3.3c0,0-1.5,1.3-2.2,2.3     c-0.9,1-3.4,3.3-3.1,3.7C220.9,206.6,220.6,207.4,221.4,206.6z" fill="#ffffff"/>
			<path class="st0" d="M410.2,354.1c1,0.5,3.4,2.9,4.3,1.9c0.9-0.9,1.6-2.9,1.6-3.1c0-0.3-0.5-0.6-0.5-0.8c0-0.3,1.2-2.3,0.7-1.9     c0,0-0.3,0.8-1.4,1.1c-1,0.2-3.2,0.6-3.9,1.2C410.5,353,409.2,353.4,410.2,354.1z" fill="#ffffff"/>
			<path class="st0" d="M489,188.6c-0.6-0.8-1.5,0.2-1.7,2.2c0,1.9,0.5,3.7-0.8,3.3c-1.3-0.4-2.5-6.3-1.2-7.7     c1.2-1.3,1.4-0.1,2.3-1.1c0,0,0.8-0.4,0.5-2.7c-0.2-2.3-2.3-4.5-1.7-5.3c0.3-0.6,1.2-3.3,0.3-5c-0.9-1.7-1.6-4.6-1.5-5.1     c0.1-0.6,0.5-1.9,0-2.7c-0.5-0.6,0.2-3.2-0.5-4.5c-0.6-1.4-3.3-4.5-3.5-5.3c-0.4-0.9-6.5-5.5-5.6-6.2c0.9-0.9,1.2-1.3,2.3-0.6     c1,0.9,4.6,4.4,4.7,4c0.1-0.4-2.3-9.8-3.5-10.7c-1.1-0.9-1.2,3.3-2.4,4.1c-1,0.6-2.7,1.6-4.3-3c0,0,2.1-0.7,2-2.6     c-0.2-1.9-3.3-2.7-3.4-3.5c-0.1-0.8,1.4-0.4,1.4-1.1c0,0-2.8-3.2-4.3-4.8c-1.4-1.7-2.1-9.5-4.5-11.5c-2.4-2-4.1-3-5.1-4     c-1.1-1-6.9-5.1-10.2-4.5c-3.6,0.5-6.3,0.7-4.5-1.3c1.8-2.2,7-2.1,5.7-3.8c-1.4-1.7-2.9-3-4.7-1.6c-2,1.5-5.4,2.4-5,4.2     c0.4,1.7,1.4,2.2-0.2,3.3c-1.7,1.1-7.1,4.2-6.9,8.4c0,0-1,1.4-1.8-0.5c-0.9-2.1,1.4-7.6,1.8-9.5c0.3-2.1-0.7-3.1,0.3-3.6     c1.3-0.5,3.8-4.2,2.6-4.8c-1.1-0.5-3.3-1.2-4.9,3.8c-1.6,5-1.6,4.3-1.3,5.8c0.2,1.3,0,1.8-0.2,2.8c0,1,0.5,2.5-0.5,2.4     c-0.9-0.1-2.1-1.2-2.1-5.1c-0.2-4,0.4-4-0.2-4.5s-3.5,0.5-1.6-2c1.8-2.4,3.3-5.5,1.1-5.2c-2.1,0.2-2.7,1.5-2.6-0.5     c0.3-2.1,2.5-2.7,0.5-3.1c-2.2-0.5-4-0.9-5.5-0.2c-1.5,0.5-2.7-1.2-3.5-0.2c-0.8,1-1.4,3.8-2.6,3.8c-1.3,0.1-1,0.4-1.7,1.5     c-0.5,1.1-3.9,1.9-4.3,3.4c-0.3,1.4,1.9,4,4,6.1c2,2.3,3.7,5,2.1,5.7c-1.7,0.7-1.7,1.4-2.4-0.7c-0.9-2.1-1.6-4-2.5-4.5     c-1-0.5,1.3,5.8,1.2,6.6c-0.1,0.9-2.1,3.8-2.7,2.4c-0.5-1.5-1.2-7.5-2.4-8.4c-1.2-0.9-2.3,0.9-3.5,2c0,0-3.7-3-5.9-2     c-2.3,1-2.6,5.5-4.5,8.8c-2.1,3.3-0.7,5.9-5.6,6.4c-4.9,0.5-7.1-0.1-7.9,2.5c-0.8,2.4-5.3,3.8-5.1,5.7c0.2,1.9-0.1,1.1-1.3,1.9     c-1.2,0.9-4.4,4.7-4.4,6.1c-0.1,1.4,0,1-0.4,1.5c0,0-3.6,4.2-3,5.6c0.5,1.3-2.9,3.1-1.2,3.8c1.4,0.8,2.7-0.6,3.5-0.3     c0.6,0.1,1.8,0.7-0.4,2.1c-2,1.4-10.8,4.5-10.2,5.5c0.6,1,5.1,2.4,4.3,2.9c-0.9,0.5-3.5,2.2-0.4,2.7c3.2,0.5,6.8-2.6,8.5-2.7     s0.9,1.2,1.9,0.7c1-0.5,2.1-3.2,3.8-3.4c1.7-0.2,2.3-0.2,1.8,1.4c-0.4,1.8-0.4,3.8-0.4,3.8s-3.5,5.5-3.9,6.5     c-0.3,0.9-1.2,4.5-6,4.4c0,0-3.2-0.3-1.4-1.2c1.7-0.9,4.5-1.9,4.8-2.5c0.1-0.8,0.8-3.2,1.4-3.8s1.2-4.7-0.3-4.1     c-1.5,0.9-4.3,5.5-6.3,4c-1.9-1.7-0.8-0.4-2.6-0.8c-1.9-0.4-7-2.9-6.4-0.7c0.4,2.3,4.2,2.5,2,3.9c-2.3,1.4-3.6,3.4-4.8,2.9     c-1.1-0.4-18,5.6-20,5c-2.1-0.5-4.1-0.3-4.9-0.3c0,0-9.2-3.2-10.1-2.9s-6.3-2-5.9-1.2c0.1,0.8-7.4-3.2-6.2-1.5     c1.1,1.7-7.8-4.8-25.6-5.4c-18-0.6-20.7,1.4-20.7,1.4s-8.4,2.4-14.8,2.9c-6.4,0.6-19.6,0.7-19.6,0.7s-2.5,0.7-3.6,0.1     c-1.1-0.5-2.1,0.1-3.5,0.7c-1.5,0.6-4.2,0.6-4.2,0.6s-0.4,0.8-2.2,0.9c-1.7,0.1-2.7,0.7-5.3,1.6c-2.7,0.7-4.2,0.3-6.1,1.3     c-2.1,1-5.1,1.3-8.4,4.1c-3.3,2.8-7.1,6.1-8.8,8.1c-1.7,2.2-4,3.9-4.7,6.1c-0.5,2.2-2.1,3.7-3.1,3.9c0,0-0.3,5-1.2,6.7     c-1,1.6-2.9,6.8-3.1,11c-0.3,4.2-0.4,12.4-1,13c-0.6,0.5-0.8,11,0.4,12.4c1.1,1.2,0.1,2.2,0.1,3.6c0.1,1.3-0.2,8.6-0.2,9.9     c0.1,1.3-0.4,1.5-0.4,2.2l0.3,6.4c0.1,1.5-0.3,7.1-0.7,8.1c-0.4,1,0.6,2.2-0.3,3.7c-0.9,1.6-0.4,4.2-1.5,5.9     c-1,1.6-3.4,2.8-3.1,5.1c0,0-11.3,11.2-13.5,12.3c-2.2,1.1-3.1,3.3-4.7,3.9c-1.5,0.6-3.1,4.3-3.8,5.2c-0.5,1-4.8,2.9-5.1,6.4     c0,0-2.1,2.8-2.2,4.3c0,0-3.8,3.4-3.4,5c0,0-7.2,12.1,7.4,8c0,0-0.3,4.4,5.8-1.5c0,0,2.4,2.6,5.2-4.4c0,0,2.3,4.3,5.1-7.8     c0,0,4,0.8,4.2-5.5c0,0,2.6-3.3,4-4.6c0,0,0.5-3.2,3.1-3.3c0,0,9.2-10.2,11.1-20.6c2.1-10.5,4.1-35.9,3.4-39.3c0,0,0.9-1.1,0.8-4     c-0.1-2.8,0.8-5.9,0.8-5.9s-0.6-3.1-0.2-4.7c0.4-1.5,2.1-2.3,1.9-3.8c-0.2-1.5-0.2-4.4,0.7-6s0.4-4.2,0.8-5.4     c0.4-1.1,5.8-16.6,16.6-21.8c0,0,16.2-3.3,18.1-2.8c1.8,0.5,2.2,0,1.1,3.1c-1.2,2.8-2.2,2.3-2.4,7.8c0,0-3.3,10-2,13.1     c0,0-5.3,5.6-3.4,6c1.3,0.3,2.2,0.7,3.1,1.3c0,1.9-0.2,3.7-0.8,4.2c-1,0.9-3.4,1.4-1.7,2.3c1.8,0.9,1.8,0.3,1.8,1.8     c-0.1,1.5-2.3,5.6-1.6,7.3c0,0-3.6,2.9-3.1,5c0.5,1.8,1.1,2.2,0.5,2.5c-0.6,0.5-1.7,1.5-1.7,2.2c0,0.6-3.1,2-2.4,4.3     c0.6,2.2,0.2,3.1,5.3,6.4c0,0-0.5,3.3,0.6,3.7c1.1,0.4,0.1-1.3,1.3-2.2c1-0.6,2-2.4,3.7-1.7c1.9,0.7,2.2,1.3,1.4,2     c-0.9,0.6-4,2-3.5,3.6c0.5,1.5,2.1,0.7,2.8,0.8c0.8,0.1,1.5,0.5,1.3,1.2s-2.6,2.2-1.7,3.7c0.9,1.4,1.8,1.3,1.4,3.4     c-0.4,1.9-4.1,10.5-9.7,15.3c0,0-2.8,7.8-2.3,10c0.4,2.2,1.1,2.3,1.1,3.9c0.1,1.5,0.2,3.3,0.6,4.4c0.4,1.3-0.6,9.1-0.4,11.3     c0.2,2.2,0.2,3-0.2,4.6c-0.4,1.5-1.5,5.8-1.2,7.6c0.2,1.7,2.1,6.3,1.8,7c-0.3,0.8-2.1,0.1-1.2,1.3c1,1.4,9.3,8.7,10.8,10.1     c0,0,10.1,4.5,11.5,4.4c1.3-0.1,0.3-2.1,3.2-1.1c3.1,0.9,4.8,2.4,5.9,2.3c1.3-0.1,1.5,1.3,2.9,2c1.3,0.5,2.3,1,7.5-1.6     c0,0,0.1,2.2,1,2.3c0.9,0.3,5.4-2,4.9-2.4c-0.5-0.4-1.9-0.9-0.9-1.2s1.8-1.4,2.3-1.5c0.6-0.1,0.4,1,1,0.9     c0.6-0.4,2.2-2.8,1.7-4.2c-0.4-1.3-2.2-8.5-2.9-8.6c-0.6-0.3-3,0.1-2.1-0.4c0.9-0.6,1.7-0.4,1.2-1c-0.5-0.8-4.8-6.9-7.1-7.9     c-2.3-1.2-10.9-4-11.4-5.5c-0.5-1.4-0.8-6.3-0.7-6.9s0-2.1-0.1-2.6c-0.1-0.6,0.3-4.1,0.3-4.6c0-0.3-0.4-1.4-0.1-2.6     c0.3-1.1,2.6-2.7,3.2-2.2c0.5,0.4,1.8-1.5,1.8-1.8c0-0.5-1,0.6-1.8,0.7c-0.8,0-1.5-0.1-1-1.5c0.5-1.4,3.8-4.6,5.5-5.7     c0,0,0.7-2.4,1.7-3.8c1-1.3,2.5-2.9,4.3-3.4c1.8-0.5,7.9-4.7,11-9c0,0,2-2.8,2.1-4.8c0.4-2.1,0.8-3.5,1.7-3.8     c0.9-0.5,1.9-0.2,2.7,1.6c1,1.8,2.2,2.7,3,4.8c0.9,2.1,2.3,6.2-1.3,11.8c-3.4,5.6-7,9.3-4.4,15s4.7,6.2,5.8,8.4     c0,0,3.9,4.9,4.4,6c0.4,1,4.7,16.6,7.6,20.5c2.9,3.6,4.1,8,5.3,8c1-0.2,5-2.9,7.2-1.6c1.9,1.3,1.9,2.7,9.2,1.5     c7.2-1.2,15.7-2.5,16.1-3.3c0.5-1-2.2-2.1-0.9-2.2c1.3-0.1,2.7,0.9,2.8,0.5c0-0.5,0.5-0.4,0.5-0.1c0,0.3,1,1,1.3,0.8     c0.3-0.4,3.5-6,2.9-6.1c-0.6-0.1-1.3-0.4-1.1-0.8c0.1-0.5,0.9-1.9,0.2-3c-0.6-1-6.1-8.7-8.9-10c-2.9-1.3-10.7,0.4-11.9,0.1     c-1.4-0.3-1.9-0.5-1.8-2.1c0.1-1.5,1.5-1.5,0.5-2.7c-1.1-1.4-1.8-1.4-2.8-3.6c-0.9-2.1-4.6-10.1-3.7-14.9c0,0,0.2-5.8,0.1-6.7     c0-0.8,1.3-3.6,3.3-4.6c0,0,2-2.9,2.5-4.6c0.5-1.9,2.7-10.5,2.7-11.9c-0.1-1.3-0.9-2.6,0-3.3c0.9-0.9,1.4-1.1,1.4-1.8     c0.1-0.6-0.6-4.4,0-3.7c0.5,0.6,2.9,7.5,3.8,6.7c0.8-0.6,3.3-4.2,3.6-3.6c0.5,0.6,1.1,4.6,2.5,5c1.5,0.4,1.8,0,2.6,0     c0.9,0,1.6,0.9,2.3,0.8c0.5-0.1,2.5-4.2,2.9-4.1c0.3,0,0.9,0,0.7,2.2c-0.3,2.1-0.2,4.7,1.1,4.4c1.4-0.4,2-2.9,2-3.7     c0.1-0.9,0.4-2.3,1.2-1.8c0.6,0.6,1.4,4.1,1.5,4.8c0,0.7,0.6-4.5,1.9-5c1-0.5,2.1,0,2.4,2c0.3,2-0.5,3.1-0.3,3.7     c0.2,0.9,1.3,1.5,2.6,1.3c1.3-0.2,1.8-0.7,1.7-1.5c-0.1-0.8-0.6-2.3,0.7-2.6c1.4-0.2,2.1-0.1,1.6,2.3c-0.3,2.3-0.5,2.7,0.5,3     c1.1,0.3,3.2-0.6,4.1,0.2c0.8,0.5,1,1.4,1.9,0.9c0.9-0.4,1-0.6,1.7-0.5c0.5,0,1.4-0.6,2.3-0.7s1.4,0.1,1.6,1.5     c0.2,1.4,3.9,6.3,4.7,7.9c0,0-0.3,1.3,2.8-0.2c3.1-1.6,2.3-1.1,3.9-1.4c1.5-0.1,2.3-1.4,3.1-1.1c0.9,0.3,1.3,1,0.4,2.1     c-0.9,1-2.3,1.5-3.2,1.1c-1.1-0.4-2.2-1.4-2.2-0.7c-0.3,0.8-3.5,5-1.9,6c1.8,0.9,1.9-0.2,2.9,1.4c0.9,1.5,1.1,3.5,2.5,3.9     c0,0,1.9,4.4,2.4,4.3c0,0,0.3,3.6,1.2,3.7c0,0-1.6,3.7-0.4,4.1c0,0-0.6,5.5-0.7,6.2c0,0.6,1.6,0.9,1.5,2     c-0.1,1.1-0.2,6.3,0.6,6.9c0,0-2.9,6.9-2.4,9.4c0.5,2.5,1.2,4.9,0.6,5.3c-0.9,0.5-2.3,0.9,0.4,2.3c2.6,1.6,1.6,1.8,1.6,2.2     c0,0,6.5,8.3,7,9.1c0.5,0.8,0-0.6,1-1c1-0.2,4.3,2,5.2,2s1.3-0.6,1.7-0.4c0.5,0.3,1.4,1,3.6,0.2c2.1-0.9,5.9-2.1,6.4-1.2     c0.5,0.8,1.4,2,3.1,2.7c1.9,0.5,0.5-0.1,1.3-0.2c0.8,0.1,0.2,0.9,1,1.2c0.9,0.3,1.5,1.3,4.1,2.4c2.4,1,3.1,1.4,5,2.5     c1.9,1,2.6,0,2.7,0.5c0,0.5,3.4,2.9,4.2,2.6c0.8-0.3,1-0.6,1,0c0.1,0.6,4.7,3.3,6.9,2.8c2.3-0.4,6.8-2.4,4.8-3.2     c-2.1-0.8-2.6-1.3-2.7-2.2c0-0.8-0.6-2.2-0.6-3.6c-0.1-1.5,0.5-3.2,0.8-3.8s2.8-6.5,4.4-6.5c1.8,0.3,3.5,9.8,5.1,10.2     c1.5,0.3,0.8-1,1.7-1c0.8,0.1,2.3,0,2.2-0.4c-0.1-0.6-0.6-1.3,0.3-1.4c0.8-0.1,2.6-1.2,2-1.9c-0.8-0.5-1.1-1.2-0.9-1.8     c0.3-0.6,1.2-2.1,0.7-2.7c-0.4-0.6-0.4-1.3-0.4-1.5c0-0.1-0.9-1.2-1.5-1.7c-0.8-0.4-10.8-7.2-12.8-5.9c-1.8-0.7-9.7-3.3-8.1-6.6     c1.6-3.2,3.3-6.1,3.7-10.4c0.6-4.2,2-5.4,2-7.7c0-2.1,1.1-3.8,1.9-5c0.9-1.1,4.2-8.9,4.2-10c0-1,0.4-1.9,0.9-2.6     c0,0,2.1-2.9,3.3-4.8c1.2-1.9,2.1-0.9,2.5-1s3-1.9,1.6-4.5c0,0,0.3-1.9,0.8-2.7c0.8-0.8-0.1-2.7,0.7-3.3c0.8-0.6,2.7-1.6,3.1-3.3     c0.4-1.5-0.2-5.8,1.6-6.7c1.8-0.9,2.2-0.6,2.6,1.8c0.5,2.5-1.5,6.8-0.3,7.2c1.3,0.5,2.9-2.2,3-6.3c0,0,1.4-0.6,0.9-2.7     c-0.4-2.1-2.1-6.1-1.3-6.6c0.9-0.4,3.5,0.2,4.3,4.4c0.7,4.2-0.2,5.8-0.1,7.2c0.4,1.4,0.7,3.6,2.2,2.5c1.3-1.3,2.4-3.6,1.6-5.9     c-0.7-2.3-0.7-4.2-0.8-4.9c0-0.7-1.3-0.5-1.5-2.5c-0.2-2-0.3-4.9,1.3-2.9c1.6,2,3.9,7,4.4,6.9c0.5,0,1.3,0.8,0-1.9     c-1.2-2.6-4.6-9.3-4.5-10.2c0-0.9,2-5,3.4-1.7c1.4,3.1,2.5,6.8,3.3,5.7c0.8-1.1-1.1-5-1.2-6.6c-0.1-1.5-0.7-8.7,0.7-9.4     c1.4-0.5,2.2-0.7,2.7,2.1c0.2,2.8,0.9,7.5,1.4,8.2c0.5,0.8,3.4-4.7,3.3-6.9c-0.2-2.1-0.1-4.7-0.1-5c0.1-0.5,1.1-4,1.2-6     c0,0-0.9-2.5,4.7-5.2c0,0,3.8-4.1,2.4-5.2c-1.4-1.2-4.7-3.1-3.3-4c1.4-0.9,2.1,0.7,3.3,0.2c1.3-0.5,2.1-2.4,0.3-4.1     c-1.8-1.4-5.7-5.5-4-5.7c1.5-0.4,4.7,3.8,5.8,2.8c1-0.9,0.7-2.1-1.1-3.6c-1.9-1.4-7.8-5.2-6.1-6.5c1.8-1.4,2.4,0.5,4.7,2.6     c2.2,2.2,4.1,3.5,3.6,1.4c-0.5-2.1-1.5-2.3-0.6-3c0.9-0.9,3.7-0.6,2.5-2.4c-1.4-1.8-2.7-2.2-2.3-3.2c0.1-0.9,1.3-1.6,2.1-1.8     c0.8-0.1,0.9-0.2-0.1-1.4c-1-1.2-1.3-8.5,0.8-7.1c1.9,1.4,1.5,2.5,3.1,1.6C488.4,195.7,489.7,189.4,489,188.6z M145.7,309.3     c-0.3,0.4-1,0.4-1.5-0.1c-0.6-0.4-0.9-1-0.5-1.5c0.3-0.4,1-0.4,1.5,0.1C145.9,308.3,146,309,145.7,309.3z M170.7,280.4     c-0.5-0.1-0.1-1.5,0.4-1.8c0.5-0.1,0.8-1,0.8-1c0.5-0.1,0.2,1,0.4,2.1C172.4,280.6,171.1,280.5,170.7,280.4z M173.1,274.1     c-0.5,0-0.8-0.4-0.9-0.9c0-0.5,0.3-0.9,0.8-1c0.5,0,0.8,0.4,0.9,0.9C173.9,273.8,173.4,274.1,173.1,274.1z M173.6,261.6     c-0.1,0-0.5-0.3-0.5-0.6c0-0.3,0.1-0.5,0.4-0.5c0.3,0,0.4,0.3,0.4,0.5C174,261.3,173.9,261.6,173.6,261.6z M179.6,200.8     c-0.3,0-0.6-0.3-0.6-0.8s0.1-0.8,0.5-0.8c0.3,0,0.6,0.3,0.6,0.8C180.2,200.3,179.8,200.8,179.6,200.8z M189.4,191.9     c-0.3,0.8-1.4,1-2.1,0.5c-0.6-0.3-0.5-1.8,0.4-2.7c0.9-0.9,2.5-0.6,2.5-0.6C191.1,189.2,189.7,191,189.4,191.9z M189.2,185.7     c-0.9-0.3-1,1-1.5,1c-0.5,0,0-0.3,1-1.6c0.9-1.3,2.2-0.6,2.2-0.6c0.5,0,0.5,0.4,0.5,1C191.4,186.4,190.1,186,189.2,185.7z      M199.4,186.1c-1.2,1.4-3.6,2.9-5.6,3.4c-1.8,0.5-0.5-0.3,0.9-3.3c1.4-2.9,5.8-3.3,5.8-3.3C201.7,183.1,200.4,184.7,199.4,186.1z      M207.7,185.4c-1,0.9-2,1.5-3.1,2.2c-0.9,0.5-1.3,0.6-2.1-0.7c-1-1.2,2.1-2.7,3.1-3.4c1-0.7,0.1-0.6,0.5-1.5     c0.4-1,0.9-0.5,2.2-0.4c1.3,0.1,2.1-0.7,2.1-0.7c0.5-0.4,1.1,0.8,1.5,1.3c0.4,0.8-0.9,1-1.8,1     C209.1,183.4,208.8,184.7,207.7,185.4z M216.4,183.1c-0.8,0.8-2.7,1.5-4,1.9c-1.3,0.4-0.6-1.3-0.1-1.7c0.4-0.5,0.5-0.8,0.7-1.8     c0.2-0.9,3,0,3,0C216.4,181.5,217,182.3,216.4,183.1z M210.4,246.7c-0.5,0-1-0.4-1-0.9s0.4-1,0.9-1c0.6,0,1.1,0.4,1.1,0.9     C211.3,246.2,210.8,246.7,210.4,246.7z M313.4,342.8c-2.2,0.9-2.6,0.2-4.2-0.2c-1.8-0.5-1.8-2.5-1.2-3.7c0.5-1.3,1,0,2.1,1     c0.9,1,1,1.2,1.8,1.3c0.8,0,0.3-0.8-0.5-2.5c-0.9-1.8,1.4-1.1,1.4-1.1s1.1,0.3,2.6,1.8C316.7,340.9,315.6,342,313.4,342.8z      M316.4,331.9c0.6-0.5,1,0.4,2.2,2c1.2,1.6,1.6,2.7,1.6,3.9c-0.1,0.9-1.8,0.7-3.1-0.7C315.8,335.6,316.4,331.9,316.4,331.9z      M312.3,328c1.4-0.1,2.1,0.8,3.1,2.4c0.9,1.5-0.4,1.1-1.5,1.3c-1,0.4-1.8-0.9-3.2-2.4C309.4,328,312.3,328,312.3,328z      M305.8,333.7c0.3-1.3,2.2-1.4,2.2-1.4c0.9,0,0.9,0.1,2.1,0.7c1.1,0.4,1,1.2,0.2,2.1c-0.8,0.8-1.3,0.4-1.5,0.4     c-0.4-0.1-1,0.2-2.2,0.2C305.3,335.9,305.6,334.9,305.8,333.7z M297.6,342.1c0.8,0.1,0.3-0.1,0.4-0.6c0.1-0.6-0.5-1.5-0.2-2.8     c0.4-1.3,1.3-1.3,2.7-1.5c1.4-0.2,1.5-0.1,3.2,0.5c1.5,0.8,2.6,6.7,2.7,7.9c0.1,1.3-0.5,1-1.5,0.9c-0.9,0-1.4-2.6-2-4     c-0.6-1.4-1.5-1.7-2.8-2c-1.1-0.3-0.9,1.3-0.9,1.6c0,0.5,0.2,1.7,0.1,2.2c-0.3,0.5-1.1-0.3-2.2-0.7     C296.1,343.1,297.5,342.1,297.6,342.1z M345.7,216.3c1,0.5-0.3,0.1-0.6,6.4s-3.3,7-2.7,8.6c0.5,1.5-2.1,6.4-2.1,6.4     s0.1,1.5,0,3.5c0.1,1.7-2.4,3.1-2.4,3.1c-2.2-0.3,0.7-4.1,0.8-5.1c0.2-0.9-0.2-2.6-0.3-3.5s0.5-1.4,0.4-2.6     c-0.2-1,1.6-3.2,2.1-3.2c0.5-0.1,2.4-6.5,2.1-6.7c-0.4-0.1-0.1-2.7,0.5-2.7c0.6,0-0.7-2.1-0.7-3.2     C342.7,216.2,344.7,215.5,345.7,216.3z M331.9,230.6c2.8,1.2-0.3,3.5-0.8,3.5c-0.6,0,0.3-1.1,0.3-1.1     C330.5,230.2,331.9,230.6,331.9,230.6z M335,219c0.1,1.9-1.3,2.6-2,3.3c-0.5,0.8,0.1,2.3-0.7,3.6c-0.8,1.3-1-2.1-1-2.6     c0-0.6,0.4-1.9,0.7-2.6c0.4-0.5,1.3-2.4,1.2-4.5c-0.1-2.1,1-1.1,1-1.1C335.4,215.5,335.1,216.9,335,219z M336.7,207.1     c0,0,0.4,1.7,0.1,3.1c-0.3,1.4-0.9,2.6-1.8,0.4C334.1,208.3,336.7,207.1,336.7,207.1z M334.7,234.5c0.5-1.5,2.2-2.9,2.2-2.9     c0.9,0.1,0.1,2.3-0.5,3.1c-0.6,0.6-1.2,3.2-1.1,4.2c-0.1,1.1-2.6-0.5-2.4-2.2C333,234.9,334.3,236.3,334.7,234.5z M343.3,206.2     c1.4-0.1-1.8,9.5-2.2,10c-0.3,0.4-1.3,0.1-1.6,2.7c-0.4,2.7,0,7.6-0.7,8.1s-0.2,2.8-1.1,3.5c-1,0.6-0.9-2.8-0.9-2.8     c-1.3,0.1-0.5-2.5,0.2-2.7c0.6-0.1,0.4-2.8,0.4-2.8s0.6-4.9,0.7-6.7c0.3-1.8,2.9-5.8,2.9-5.8S341.9,206.2,343.3,206.2z      M338.6,192.2c0-3.3,2.7-3.6,2.7-3.6c0.3-0.4,0.5,2.7,0.1,3.5c-0.1,0.8-2,2.8-2.4,3.4C338.3,196.2,338.7,195.7,338.6,192.2z      M334.3,191.9c0.8-1,0.6-0.6,0.5-2.6c-0.1-1.7,2.6-1.4,2.6-1.4c0.6-0.4-0.5,2.8-1.3,3.6c-0.9,0.6-1.4,2.2-1.4,3.6     c0.1,1.4-1.3,1.8-2.3,0.6C331,194.4,333.4,192.9,334.3,191.9z M333.1,204.2c0.9-0.6,1.2,2.5-0.3,4.6c-1.4,2.2-0.4,1.8,0,2.7     c0.4,0.9-0.6,4.2-1.9,5c-1.2,0.9-1.2,4-1.1,4.7c0.2,0.9,0.2,2.3-0.4,2.8c-0.4,0.6,0,0.9,0.2,2.3c0.1,1.4-1.2,1-1.7,1.5     c-0.5,0.4-0.2,2.6-1.6,3.6c-1.4,1-0.2-2.8,0-4c0.3-1.1-0.2-1.3,0.4-2.2c0.5-1.1,0.3-1.3,0.3-3.3c0-2.2,1.1-3.5,1.6-4.1     c0.4-0.8,1-1.6,1.4-2.9c0.4-1.3-0.1-1.3,0.3-2.3s1-1.3,1.1-4.7S333.1,204.2,333.1,204.2z M327.9,208.4c-1,0.6-1.5,0.1-0.7-2.5     c0.8-2.6,3-2.7,3-2.7c0.6-0.1,0.2,1.4-0.5,1.9C328.7,205.7,328.9,207.9,327.9,208.4z M330.1,189.1c0,0,1,0.4,1.4,0.8     c0.5,0.3-0.7,3.8-1.3,5.5c-0.7,1.8-1,1.3-1.8,0.4c-1-0.9,0.3-2.2,0.3-5C328.4,188.1,330.1,189.1,330.1,189.1z M328.6,183.2     c1.4-0.1-0.3,2.2-0.8,3.2c-0.5,1-1.8,0.7-2.2-0.5C325.5,184.7,328.6,183.2,328.6,183.2z M323,190.7c0-0.9,1.8-2.4,1.8-2.4     c0.8-0.1-1.1,4.1-1.5,5.1C322.9,194.3,323,191.7,323,190.7z M323.4,195.2c2.7,1.2-0.8,4.2-0.7,5.2c0,1-1.4,3.2-2.4,4.3     c-0.9,1.1,0.3,4.2-2.4,3.8c-2.7-0.5,0-2.2,0.8-3.1c0.9-0.6-0.1-2.6,0.4-4.6c0.5-1.9,2.2-1,2.5-3.4     C322.3,195.2,323.4,195.2,323.4,195.2z M320.2,185.6c0.9,0,1.8,0.4,1.8,1c0,0.6-0.8,1.1-1.7,1.1s-1.8-0.4-1.8-1     C318.5,186.1,319.2,185.6,320.2,185.6z M312.7,192c0.9-3.8,3.1-2.5,3.1-2.5c0.6,0,0.2,1.9,0.1,3.1     C315.8,193.6,311.8,195.6,312.7,192z M310.1,202.9c0.6,0,1.1,0.4,1.1,0.9c0,0.5-0.4,1-1,1c-0.6,0-1.1-0.4-1.1-0.9     C309.2,203.4,309.7,202.9,310.1,202.9z M307.2,187.3c0.6,0,1.1,0.5,1.1,1.2s-0.4,1.3-1,1.3c-0.6,0-1.1-0.5-1.1-1.2     C306.3,188,306.7,187.3,307.2,187.3z M306.7,201.1c0.5,0,0.8,0.3,0.8,0.8c0,0.5-0.3,0.8-0.8,0.8c-0.5,0-0.8-0.3-0.8-0.8     C305.9,201.6,306.2,201.1,306.7,201.1z M306,207.5c0,0.6-1.3,3.2-2.2,4.3c-0.9,1-1.3,2.4-2.6,4.1c-1.4,1.8-0.3,0.8,0,2.1     c0.1,1.3-0.5,2.1-1.4,2.7c-0.9,0.6-1.1-0.9-1.1-2.1c0-1,1-2.3,0.8-2.7c-0.1-0.5,0.4-1,0.5-1.5c0.3-0.6,0.9-1.9,1.6-3.1     c0.8-1.1,2.2-2.9,2.2-3.8c-0.1-0.8,1.8-2.8,1.8-2.8C305.9,203.9,306,206.8,306,207.5z M296.2,221.2c-0.4,4.7-2,1.5-2.8,0.6     c-0.9-0.9,0.8-0.5,0.4-1.4c-0.5-1-0.1-2.1,0.2-2.8c0.3-0.8-0.1-3.1,0.4-4.4c0.5-1.3,2.6-3.3,3-3.9c0.6-0.6,1.9-5.6,3.7-8.4     c2-2.8,2.9-2.8,2.9-2.8c1.8-0.4-0.4,1.4-0.4,2.1c0.1,0.6-1.3,2.7-2.2,3.7c-0.8,0.8,0,2.2-0.8,2.8c-0.8,0.6-1.7,3.7-2.5,4.5     s0.2,0.9-1.6,3.1C294.8,216.3,296.7,216.5,296.2,221.2z M292.1,215.9c0.4,0.8-0.9,3.5-1.7,4.5c-0.5,1.1,1,2.3,0.2,2.8     c-0.8,0.6-0.1,1.3-0.3,2.2c0,1-1.8-0.3-2.9-1.3c-1.1-1.2,0.9-3.1,1.6-3.7c0.5-0.8-0.5-4.5-0.2-6.8c0.3-2.2,2.7-2.3,2.7-2.3     c0.9,0,0.4,1.5,0,2.6C291.1,215,291.6,215.2,292.1,215.9z M291.2,203.8c-1,1,0.7,2.3-0.4,3.8s-2.7,3.4-3.5,5     c-1,1.4-0.4,2.1,0.1,2.8c0.4,0.9-1.6,4.3-2.8,5c-1.4,0.5-0.2-5.4,0.3-6.7c0.4-1.3-0.1-2.3,0.7-3.1c0.8-0.5,3.3-7,3.9-7.9     c0.4-0.8,0.3-1.1-0.1-1.7c-0.1-0.8,3.5-3.3,4.7-3.9c1.4-0.6,1.2-2.3,1.2-2.3c2.1-0.1,0.4,2.1-0.7,3.8     C293.6,200.7,292.3,202.8,291.2,203.8z M283.7,209.2c0.2,0.9-0.2,3.7-0.8,4.2c-0.6,0.5-2.2,4.1-2.6,5.8c-0.4,1.8-1.4,3.8-2.5,3.8     c-1.1-0.1-0.2-4.4-0.1-4.9c0.1-0.5,3.2-6.8,3.4-7.4c0.4-0.6,0.9-3.3,0.8-5.1c-0.1-1.5,2.5-4.2,3.5-5.3c1-1.1,1.7-3.1,1.7-3.1     c0.4-1.3,4.8-5.2,5.1-5.9c0.4-0.5,1.4-2.6,2.1-3.6c0.5-1,2.1-1.8,2.5-2.2c0.3-0.1,0.3-1.4,1.2-1.9c0.9-0.5,1.5,0.8,1.1,1.4     c-0.6,0.6-2.7,3.4-4,5.1c-1.3,1.6-3.3,4.1-3.9,5.2c-0.8,1.1-3.4,4.7-3.9,5.5c-0.4,0.8-2.8,5-3,5.5     C284,207,283.4,208.1,283.7,209.2z M295.4,200.2c1-2.1,4.5-3.2,4.5-3.2c1.5-0.4-3.4,5.6-4.3,6.4c-0.9,0.5-0.9,4.1-0.8,5.2     c0,1-1.8,1.4-2.3-0.3c-0.5-1.6,1.7-4.7,2.4-5.1C295.4,202.7,294.2,202.3,295.4,200.2z M304.1,184.1c1.9,1-1.4,3.7-2.1,2.2     C301.5,184.8,304.1,184.1,304.1,184.1z M298.4,191.3c-1.9-1,3.1-4.7,3.1-4.7C303,187.3,300.4,192.5,298.4,191.3z M295.9,180     c1.7-1.5,3.4-2.5,3.4-2.5c1.9,1.3-2.4,3.4-3.4,3.8s-1.9,6.3-4.4,4.4C289,183.8,294.1,181.5,295.9,180z M286.7,181.6     c0.9-1,2-1.6,2.3-1.1c0.4,0.3-0.1,1.4-1,2.4c-0.9,1-2,1.6-2.3,1.1C285.3,183.6,285.8,182.5,286.7,181.6z M286.8,192.4     c2.6,0.4-1.2,2.3-1.3,3.2c-0.3,1.1-1.8,2.9-2.4,3.2c-0.6,0.4-0.6,0.6-0.5,2.1c0.1,1.5-2.5,4.8-3.4,5.6c-0.9,0.9,0.1,2.6,0.2,4.1     c0.1,1.5-3.2,6.9-4.1,7.4c-0.9,0.5-0.6-2.5,0-4c0.5-1.3,2.4-9.4,2.6-10.4c0.1-0.9,1.3-2.2,2.2-3.6c0.9-1.4,0.3-1.8,0.8-2.3     c0.6-0.5,2.3-2,3.1-3.7C284.8,193,286.8,192.4,286.8,192.4z M268.3,236.7c-0.8-0.3-0.4,0.6-0.4,0.6s-0.3,2.1-0.4,2.3     c-0.1,0.4-0.8,0.8-1.4-0.8c-0.6-1.5,1.4-1.9,1.4-1.9s0.3-0.1-0.1-0.6s0.4-2.7,0.9-3.1c0.8-0.4,1.4-1.1,1.4-1.1     c0.4-0.5,1.1,0.5,1.9,1.7c0.9,0.9,0.1,2.2-0.2,2.7c-0.3,0.5-0.4,4.6-1.3,5.2c-0.9,0.6-1.4-1-1.5-2.3     C268.4,238.4,269.3,237,268.3,236.7z M264.8,238.1c0.4,0.9-0.4,2.7-0.9,3.3c-0.8,0.6-1.4,1.9-2.2,2.4c-0.8,0.5-1.8,1-2.3,1.1     c-0.5,0.4-1.6,3.1-2.2,3.8c-0.8,0.8-0.5-0.4-0.6-1.3c-0.4-0.6,1.4-3.6,1.6-4c0.1-0.5,0.1-1.3,0.5-1.5c0.5-0.4,1.3-1.8,1.8-2.3     c0.5-0.4,3.4-2.7,3.3-3.9c0-1,1.3-1.3,1.3-1.3c0.6,0,0.1,1.3,0,1.9C264.7,237.3,264.5,237.2,264.8,238.1z M248.2,230.4     c-1.3-0.8,0.3-4.4,0.7-4.7c0.5-0.4,0-0.1,0.4-1.8c0.4-1.4,3-2.8,3-2.8c0.5,0,0.4,0.5,0.5,0.4c0.1,0.1-0.4,2.6-1.1,3.7     c-0.8,1.1-0.9,2.6-1.4,3.3c-0.4,0.7,1-0.5,1.7-1c0.6-0.5,0.9-1,1-2.1c0.1-1.1,3-1.9,3.9-1.9c1,0-0.3,1.5-1.2,2.1     c-0.9,0.5-4.3,5.7-5.2,6.5c-0.9,0.6-1.4,0.1-1.5-0.5C248.9,231.5,249.7,231.1,248.2,230.4z M250,210.6c-0.1-1.3,1.3-2.2,2-2.4     c0.6-0.4,0.5,0,0.8-1.5c0.3-1.5,2.5-2.2,2.5-2.2c0.3-0.1,0.4,0.9,0.4,0.9c-0.2,2.8-1.7,4-2.8,4.7c-1,0.6-0.9,4-2,4.7     c-1,0.9-0.9,0.5-1.9,0c-1-0.4-0.2-1.4,0.8-2.4C250.6,211.2,249.8,211.6,250,210.6z M256.6,212.8c0,0.5-1.2,1.6-2.2,1.1     c-1-0.4-0.4-1.8-0.1-2.3c0.4-0.6,0.1-0.5,0.5-1.9c0.3-1.5,2.1-1.1,2.1-1.1c1.3,0.3,0.9,1.5-0.3,1.9     C255.6,210.9,256.6,212.3,256.6,212.8z M253.2,216.9c-0.1-1.4,2-1.8,2-1.8c0.8-0.4,0.9,1.4,0.9,2.2s-1.3,2.2-2,2.2     C253.3,219.5,253.2,218.3,253.2,216.9z M254,220.8c0,0.3-1,0.5-1.4-0.1c-0.5-0.6,1-0.9,1-0.9C254,219.6,254,220.4,254,220.8z      M257.2,237.1c1.2-1.4,1.3-2.2,2.1-2.8c0.6-0.5,2.5-1,2.5-1c0.8-0.1-0.9,3.1-1.3,3.7c-0.4,0.6-2.5,1.6-2.5,1.6     c-0.3,3-2.2,4.3-3,5c-0.8,0.7-0.1,1.4,0,2.3c0,0.9-0.9,3.2-2,4.3c-0.9,1.1-1.3,2.4-2.6,2.7c-1.3,0.4-1-1-1-1.8     c0-0.9,1.4-2.3,2.5-2.8c0.8-0.5,1.2-3.8,1.7-4.5c0.4-0.6,0-2.3,0.3-3.2C254.1,239.9,256.1,238.8,257.2,237.1z M265.5,225.5     c-0.1,0.9-0.6,0.5-1.2,1.4c-0.5,0.8-1.6,5-2,5.6c-0.4,0.8-1.3-0.1-1.8-1.2c-0.6-1,1.4-3.6,1.7-3.7c0.1-0.1,0.6-0.6,0.5-2.1     c-0.1-1.4,1-1.4,1.6-2.9c0.5-1.4,2.3-1.1,2.3-1.1c0.6,0,0.1,1.7-1,2.4C264.7,224.7,265.6,224.5,265.5,225.5z M250.6,257.1     c1.4-2.7,3.8-3.2,3.8-3.2c1.7-0.1-0.8,3.3-1.4,4.1c-0.5,0.8-1.8,2.9-2.1,3.3c-0.3,0.5-2.1,3.3-2.8,4.8s-0.8,2.6-1.2,3.3     c-0.3,0.9-5.2,4.8-7,5.2c-1.8,0.4-0.8-0.5,0-1.9c0.9-1.1,5.9-6.7,6.8-7.9C247.7,263.9,249,259.7,250.6,257.1z M250.2,266.3     c0.9-0.9,5.5-10.3,6-11.4c0.3-1.1-0.5-1-1.5-2.2c-1-1,0.8-2.1,0.8-2.1c0.5-0.4,1.5-0.1,2.8,0.4c1.3,0.4-0.2,3.3-0.4,4.1     c-0.3,0.6-1.5,5.8-1.5,6.7c0,0.8-2.4,3.1-3.5,3.6s-1.3,2.2-2.2,2.7C250.1,268.6,249.6,267.2,250.2,266.3z M264.7,234.1     c-0.6,0,0.1-1.4-0.2-2.1c-0.3-0.7,1.4-3.1,1.4-3.1c0.6-0.6,1.1,0.1,1,1.4C266.8,231.4,265.4,234,264.7,234.1z M270.1,230.5     c0-0.3,0.3-0.6,0.6-0.6c0.3,0,0.6,0.3,0.6,0.6c0,0.3-0.3,0.6-0.6,0.6C270.4,231.1,270.1,230.8,270.1,230.5z M270.3,214.3     c0-0.8,0.4-1.4,1.2-1.4c0.6,0,1.1,0.5,1.1,1.4s-0.4,1.4-1,1.4C271.1,215.8,270.4,215,270.3,214.3z M272.2,210.6     c-0.9,1.4-1.2-2.5-1.2-3.9c0.1-1.3,2.6-3.8,2.6-4.5c0-0.6,1.2-4.1,3-6.5c1.8-2.4,5.2-4.4,5.2-4.4c1.5,0.1-1.2,2.4-2.2,3.4     c-1,1-1.9,4.3-1.9,5.6c0.1,1.3-2.5,4.2-3.7,6.4C272.8,208.8,273.2,209.2,272.2,210.6z M281.9,180.1c1.8,0.4-1.9,5.2-2.6,3.1     C277.9,178.1,281.9,180.1,281.9,180.1z M276,177.2c1.5-0.2,1.1,2.2,0.7,2.2c-0.6,0,0.4,1-1.7,0.9C273.1,180,276,177.2,276,177.2z      M276.4,189.9c0.3-0.4,0.5,0.1,1,0.9s-1.6,2.7-2.5,3.7c-0.9,1-3.9,7-5.4,9c-1.3,1.9-0.2,6.4-0.7,6.8c-0.4,0.5-1.4,3.3-1.2,4.6     c0.1,1.3-2,1.6-2.5,2.8c-0.4,1.2-1.7,1.4-1.8,2.2c-0.1,0.8,0.1,1.9-0.4,2.2c-0.5,0.1-0.4,0.5-0.5,1.8c-0.1,1.1-3,1.5-3.6-0.2     c-0.9-1.7,3.9-4.2,4.2-5.7c0.1-1.4,1.4-0.9,1-1.9c-0.4-1,1.2-3.2,1.7-3.6c0.5-0.4,0.9-4.2,1-6.7c0-2.6,3.6-8.8,4-9.7     c0.3-0.8,3-2.8,3-2.8C275.4,189.8,276.4,189.9,276.4,189.9z M266.4,188.3c0.5-2.1,2.9-2.5,2.9-2.5c0.8-0.4,0.3,0,0.8,0.5     c0.5,0.4-2.6,4.1-3.1,4.2c-0.5,0.4-0.1,0.1-0.3,0.6c0,0.5-0.5,1.3-1.3,1.8c-0.8,0.5-1.6,2.6-2.1,3.1c-0.4,0.6-0.3,1.3,0.1,2.3     c0.4,0.9,0.4,0.5,1.3-0.1c0.9-0.5,1.2-0.9,2.1-2.8c0.9-1.8,1.3-2.2,1.6-2.7c0.3-0.5,1.8-2.3,3.4-3.4c1.5-1.1,1,0.5,1.1,1     c0.1,0.5-1.5,1.6-2,2.6c-0.3,1.1-2.8,5-3.7,5.5c-0.9,0.5,0.1,1.4-0.4,1.8s-2.4,5-2.6,5.6c-0.3,0.6,0,3.3,0,4     c0,0.5-2.6,4.1-3.5,5.3c-0.8,1.3-0.9,0.9-1.4-0.3c-0.6-1,0.7-2.4,1.1-3.5c0.5-1.1,0.4-1.9,0.9-3.5c0.4-1.5,1.4-1.8,1.4-1.8     s-0.4-1.7,0-3c0.3-1.3,0-1.9-0.7-2.1c-0.8-0.3,0,1.9-0.2,2.6c-0.1,0.6-1,2.3-2.7,2.2c-1.8-0.3-0.1-2.8,0.3-3.6     c0.5-0.8,1.1-3.8,1.7-5.1c0.5-1.1,1.2-1.3,1.7-3.2c0.4-1.9,2.2-3.2,2.7-3.7C266.1,189.9,265.8,190.3,266.4,188.3z M262.4,176.4     c0.9,0,1.5,0.4,1.6,1c0,0.5-0.5,1-1.5,1c-0.9,0-1.5-0.4-1.6-0.9C260.9,176.9,261.5,176.4,262.4,176.4z M259.7,175.2     c0.1,0,0.4,0.1,0.4,0.5c0,0.3-0.1,0.5-0.3,0.5c-0.2,0-0.5-0.1-0.5-0.4C259.5,175.5,259.6,175.2,259.7,175.2z M262.8,187.1     c0.6-0.5,0.6,0.4,0.9,0.9c0.1,0.3-0.8,2.3-1.3,2.4c-0.5,0.1-0.7,2.2-1.2,2.8c-0.4,0.6-1.2,1.3-1.8,2.3c-0.8,0.8-0.9,3.7-1.7,4.5     c-0.8,1-0.7,1.9-1.3,1.8c-0.6,0,0.1-0.6,0.3-2.1c0.2-1.5,0.7-4.9,1.6-7.3C258.7,189.9,262.8,187.1,262.8,187.1z M247.3,185.8     c0.3-1.8,2.2-0.9,2.3-2c0.1-1.1,1.2-1.4,1.2-1.4c0.3-0.4,0.9,0.3,1.3,0.8c0.4,0.5-1.2,1.4-2.1,1.8c-0.9,0.4-0.9,1.3-2,3.2     c-1,1.8-2,2.4-2.5,3.7c-0.5,1.3-1.7,3.6-2,4.5c-0.4,1,0.2,2.1-0.4,2.8c-0.5,1-0.9,0.6-1.5,1.1c-0.6,0.5-1.4,0.5-2.2-0.5     c-0.9-1,2.2-4.3,2.8-5.5c0.8-1.1,0.8-3.1,0.8-3.1C245.8,184.7,247,187.5,247.3,185.8z M240.6,181.8c0.3,0,0.6,0.3,0.6,0.6     c0,0.3-0.3,0.6-0.6,0.6c-0.3,0-0.6-0.3-0.6-0.6C239.9,182.2,240.1,181.8,240.6,181.8z M239.9,188.1c0.8-0.1,3.1-3.3,3-4.3     c-0.2-1.3,3.1-2.2,3.1-2.2c0.8-0.1,0.6,0.4,0.4,1.8c-0.3,1.4-2,1.9-3,2.8c-1,0.9-4.1,7.7-5,9.5c-0.9,1.8-1.2,4.1-1.2,5.4     s0.6,0.6,1.4,1c1,0.4-2.1,3.6-3.1,4.7c-1,1-1.1-0.3-1.8-1.2c-0.9-0.9-0.4-0.1-0.9,0.4c-0.6,0.5-1-1-0.4-2.3c0.4-1.3,3.5-6,3.5-6     C235.6,193.8,239.3,188.4,239.9,188.1z M229,186.7c0.6,0,1.1,0.1,1.1,0.1c0,0.1-0.5,0.1-1,0.2c-0.6,0-1,0-1.1-0.1     C228.1,186.8,228.5,186.7,229,186.7z M215.5,214.9c-0.2-1-0.6-2.8-0.3-3.7c0.1-0.9,0.4-5.7,2.3-9.2c2-3.5,2.8-7.8,5-9.3     c2.2-1.4,3.2,1.3,4,0.3c0.9-1,10-7.7,10.9-6.7c0.9,1-2.3,5.5-2.3,6.7s-4.1,8.8-5.8,10.5c-1.7,1.6-7.8,5.2-6.4,6.2     c1.4,1,7.5-4.5,7.6-2.5s-8.9,6.2-9,9.1c0,0-2.2,2.2-2.7,3.4c0,0-0.8,2.8,1.4,2.2c0,0,0.7-2.2,1.3-2.9c0.8-0.5,0.1-1.3,0.5-1.4     c0.5-0.4,3.8-3.2,3.9-1.1c0,0-1.2,1.8-2.7,3.3c-1.5,1.5-4,4.6-3.7,5.9c0,0-3.7,1.7-3.6,0.5c0.1-1.3,0.9-3.8,0.9-3.8     s-1-0.4-1.9-0.9c0-0.3,0-0.6,0-0.9C214.8,219.3,215.7,216,215.5,214.9z M230.8,350.2c-1.3,0.1-1.3-1.2-1.5-2.5     c-0.2-1.3,0.3-2.2-0.7-2.7c-1.1-0.5-0.8,0.8-0.5,1.9c0.2,1,0.2,1.5-1,2.3c-1,0.6-2.9-1.4-3.4-3.9c-0.6-2.5,4.2-5.1,4.2-5.1     s0,0,1.5,0.3c1.5,0.3,2.9,2,3.7,3.8c0.7,1.8,0.6,3.7,0.7,5.1C233.9,350.8,232.1,350.1,230.8,350.2z M244.3,345.7     c-1,0.4-1,0.6-1,1.8c0,1.2-0.5,1.4-2.5,1c-2-0.4-0.2-1.9-0.7-4.2c-0.6-2.3-1-0.9-2.7-0.9s0.1,1.9,0.9,2.8     c0.6,0.9,1.7,3.6,1.6,4.4c-0.1,0.8-3.1-0.9-5.2-3.8c-2-2.7,0-2.8,0.8-4.1c0.8-1.4,0.1-1.1,0.8-3.2s2.1-0.4,2.1-0.4s1-0.4,2.7,0.2     c1.5,0.5,0.6,0.8,0.9,2.1c0.3,1.3,0.2,1.3,0.6,1.4c0.5,0.1,0.4-0.8,1.8-1.8c1.4-1,1,1.2,1.2,3     C245.7,345.5,245.5,345.3,244.3,345.7z M239.2,332.8c2.6,0,1.9,1.2,2.9,2.2c1,1,1.5,0.4,3.8,0.9c2.4,0.5,1.1,1.7,1.8,2.5     c0.6,0.8,2.3,2.6,3.3,4.4c0.9,1.8-0.4,2.3-2.1,2.7c-1.7,0.2-2.1-4.9-2.6-5.7c-0.5-0.8-0.4-0.3-1.4-0.5c-1.1-0.3-0.8-0.4-1.3-1.3     c-0.5-0.9-3.1-0.8-4.2-0.9c-1.3-0.1-0.4-0.1-1.8-0.4s-1.7,0.5-3,0.5c-1.3-0.1-2.8,0-4.6,0.7c-2.1,0.5-1.8,0-2.7-0.8     c-1.1-0.8-2.1-0.8-3.4-2.4c-1.3-1.3,1.3-1.6,1.8-2.4c0.4-0.8,2.3-2,2.3-2c0.8-0.4,0.4,1,0.1,1.4c-0.3,0.5,0,0.8-0.4,2.7     c-0.4,1.9,1,1,2.6,1.3c1.5,0.3,1.4-2.3,2.5-2.8c0.9-0.5,1.9,0.4,1.9,0.4C235.1,332.5,236.8,332.8,239.2,332.8z M231.5,319.1     c0.5-0.4,0.5,2.7,0.1,3.3c-0.3,0.6-0.5,1.8,0.5,3.7c1,2.1,0.4,2.2-0.9,2.6c-1.3,0.4-1.9-3-1.6-5.1c0.3-2.2,0.4-1.1-0.2-2.2     C228.6,320.4,231.5,319.1,231.5,319.1z M230.9,316.9c0-0.3,0.1-0.6,0.4-0.6c0.3,0,0.5,0.3,0.5,0.6c0,0.3-0.1,0.6-0.4,0.6     C231.1,317.6,230.9,317.3,230.9,316.9z M261.1,267.6c-1.3,0.1,1.6-2.7,1.6-2.7C264.2,265,262.4,267.5,261.1,267.6z M262.7,256.6     c-0.9,0.9-0.1,0.8-0.3,2.2c-0.1,1.4-1.2,2.6-1.2,2.6c-1.1,5.5-1.7,4.2-2.8,5.2c-1,1.1,0.7,2.1,2.2,2.1c1.4,0.1,0,3.6-1.1,4.2     c-0.9,0.6-1.1,4-1.9,6c-0.7,2-10.4,8.2-11.1,8.6c-0.6,0.4-0.6-0.1-0.8-0.8c-0.4-0.8-4.6,1.5-6.3,2.5c-1.7,1-0.9,0.2-2.2,0.1     c-1.4-0.1-3.6,3.4-3.6,3.4c-0.1,0.8,0.9,0.1,2.1-0.1c0.9-0.2-2.2,4.1-2.5,4.8c-0.3,0.8,1.1,0.9,2.2,1.8c0.9,0.9-3.6,4.6-4.9,6.8     c-1.3,2.3-1.8,1.8-3.4,1.5c-1.5-0.4,4.7-7.3,4.8-8c0.1-0.8-7.4,5.8-9.2,6.7c-1.8,1,1.2,5.7,2,7.3c0.9,1.7-5.7,6.6-4.8,7.8     c1,1,5.7-6.4,6.8-6.9c1-0.5,0.1,3.1-0.4,4.1c-0.4,1,0.6,0.9,1.4,1.8c0.6,0.9-2.2,4.2-2.8,5c-0.8,0.8,2.2,0,2.8,0.7     c0.6,0.6-0.8,0.8-0.9,1.4s-1.3,3.1-2.5,3.7s-1.8,1.8-2.7,3.1s-1.4,0.1-1.9-0.9c-0.5-0.9,2.9-4.5,3.3-5.1c0.4-0.6-1.8-0.4-3.2-0.2     c-1.4,0.4-1.4-2.5-1.1-3.7c0.3-1.3-1.3-0.5-3.3-0.8c-2.1-0.4,0.5-2.8,1.6-4c1-1.1-0.9-0.9-1.9-1.4c-1-0.8,1.2-2.7,2-3.1     s-0.1-0.6,0.1-1.5c0.3-0.9,3.9-8.2,3.9-8.2c0.4-0.8,2.1-0.9,2.7-1.5c0.9-0.6,3.4-2.9,3.5-3.4c0.1-0.5-4.8,2.9-6.3,3.5     c-1.5,0.6-0.2-1.9,0.7-2.6c0.8-0.6,6.6-6.1,7.6-6.5c0.9-0.4,8.3-8.6,9.2-9.3c0.8-0.6,1.8-1.4,1-2.3c-0.9-0.9-2.9,2.8-4.3,4.1     c-1.3,1.3-4.7,4.4-6.1,6.1c-1.3,1.6-4.3,3.4-5.3,4.2c-1,0.6-4.1,1.9-5.3,2.9c-1,1,0.2,2.1,0.6,2.3c0.4,0.3-0.3,0.9-1,1.6     c-0.9,0.6-1.3-0.3-2-2.6c-0.7-2.2,0.7-3.6,1.2-4.6s3.9-7.3,5-8.4c1.2-1.1,3.4-2.9,4.5-3.7c1-0.6,4.1-3.2,5-3.7     c0.9-0.5,3.4-3.8,3.9-4.6c0.5-0.8-0.4-0.8-1.1-2.1c-0.9-1.2-2.5-6.1-2.9-7.2c-0.4-1-0.5-1.4-1.4-0.8c-0.8,0.6-2.5,2.9-2.6,4.3     c-0.3,1.4-2.5,2.9-2.5,3.8c-0.3,1.1-0.3,3.2-1.3,4.6c-1,1.4-1,2.4-0.3,3.2c0.5,0.8,1.2-0.9,2-1.8c0.5-1,1.6-2.7,2.9-3.7     c1.2-1.1,1.8-1,4,0.2c1.9,1.2-5.2,6-5.2,6c-3.2,1.2-2.7,1.9-3.4,2.4c-0.6,0.4-3.6-0.7-3.6-0.7c-3.3,7-7.5,8-8.4,8     c-0.9,0,0.1-1.3,0.5-2.1c0.4-0.6-0.8-0.5-1.9-0.7c-1.1-0.1-0.5-0.9,0.7-1.9c1-1,7.5-8,7.5-8l0.1,0c1.7-0.7,0.9,0,1.8,0.3     s0.9-1.4,2-4.5c1.2-3.1,2-3.6,1.1-4.1c-0.8-0.4-1.3,2.9-2.9,2.7c-1.5-0.3,0.7-5.2,1.2-6.7c0.5-1.4-1,0.6-2.7,0.6     c-1.5-0.1,0.2-5.8,1-7.4c0.8-1.5-0.8-0.4-1.9-1.8c-1.1-1.2,0.7-2.7,1.7-3.8c0.9-1.1,1.2-4,1.2-4c0.5-0.4,1.3-1.8,1.8-2.6     c0.4-0.8,3.4-3.3,4-4.1c0.7-0.8,1.5-1.1,0.8-1.5c-1-0.5-2.2,0.7-2.7,1.4c-0.6,0.6-0.8,1.5-0.8,2.1c0,0.3-3,2.8-3.8,3.7     c-0.8,0.8-1.2,3.3-1.7,4.2c-0.5,0.8-2.2,0.9-2.6,0.1c-0.5-0.8,0.3-2.2,0.8-2.6c0.6-0.4,1.4-1.1,1.4-1.8c0-0.6-0.6-0.3-2.2-0.3     c-1.4,0.1-2.2-2.2-1.7-4c0.5-1.8,2.5-1.4,3.7-1.5c1-0.2,0.4-2.3,0.2-3c-0.1-0.8-1.3-1-0.7-2.2c0.5-1.1,5.2-7,5.2-7     c0.5-1,0.8-1,1.5-0.9c0.8,0.1,3.5-2.2,4.1-2.4c0.8-0.4-2.2-0.5-3.5-0.3c-1.3,0.2-4.9,4.2-6,4.2c-1,0-0.9-2.6-0.2-3     c0.5-0.4-0.8,0-1.3-1.5c-0.5-1.5,3.3-0.2,4.1,0c0.8,0.2,2.8-1,3.5-2.4c0.9-1.1,3.8-3.2,4.4-4.6c0.5-1.3-1.8-0.5-2.6,0.2     c-0.9,0.6-1.3,1.5-3.1,2.2c-1.7,0.5-0.1,0.9-1.2,1.4c-1,0.5-1.1-0.3-0.6-1.5c0.4-1.3,6.4-6.7,7.3-7.5c0.9-0.9,0.3-2.2,0.2-3.2     c0-0.8,3.1-2.5,4.3-2.9c1.3-0.4,0.9-0.4,1.4-1c0.4-0.8,4.1-3.2,4.1-3.2s0.8-0.1,1,0.4c0.1,0.5-0.8,1.1-1.4,1.9     c-0.8,0.8-1.2,1.9-2.4,3.1c-1.2,1.1-0.5,2.2-1.7,4.2c-1.3,1.9-0.3,0.9,0.4,0.9c0.7,0,3.3-4.8,4.2-5.9c1-1.1,2.5-4.1,3.3-5.3     c0.8-1.3,5.1-9.7,5.8-10.7c0.5-1.1,0.7-2.7,1.1-3.8c0.4-1.1,3.6-4.6,4.7-4.4c1.1,0.3-0.7,1.9-0.7,2.4s-1.3,5.2-2.8,6.1     c-1.2,0.9-1.1,3.7-2.1,5.6c-0.9,1.9-1.3,3.2-2.2,4.1c-0.8,0.6,0.2,1.9-1.2,2.8c-1.4,0.9-1.6,2.6-2.6,4.2s-2.7,2.3-2.9,3.1     c-0.1,0.9-3.1,4.8-4.2,6.1c-1,1.3,0.8,0,2.3-1.4c1.5-1.3,0.9-1,1.8-2.6c0.9-1.4,3.1-1.9,3.5-2c0.6-0.1,0.5-1,1.2-2.4     c0.8-1.5,2.6-4.2,4.2-5.5c1.3-1.3,0.5-1.5,1.6-4.1c0.9-2.6,2.6-4.5,2.8-6.8c0-2.2,0.8-3.1,1.7-4.6c0.9-1.6,2.6-2.7,3-2.9     c0.4-0.5,0.4-1.4,1-2.1c0.6-0.7,0.8-0.1,1.4,0.1c0.5,0.1,0,0.9-0.4,1.1c-0.5,0.1-0.9-0.1-1.3,2.2c-0.4,2.2-3.2,6.5-3.5,7     c-0.1,0.5-0.3,1.4-0.3,3c0,1.8-1.5,1.3-2.7,3.7c-1.3,2.4-0.9,2.8-0.9,2.8c-0.2,4.6-3.5,5-4.2,6.8c-0.4,1.8-2.9,2.8-2.9,2.8     c-1.2,2.4-3.8,3.9-3.8,4.4s-2.5,4.6-3.8,5.9s-0.5,2.6-0.5,2.6c0,1.8,1-1.3,3.4-3.4c2.2-2.3,4.8-4.4,6.1-5.3     c1-0.9,1.4-0.6,1.3,0.8c-0.3,1.4-0.5,1.4-1.4,2.6c-1,1.1-2.7,3.7-4.3,5.2c-1.7,1.4-3.5,4.1-4.2,5.7c-0.9,1.4-2.7,8.2-2.8,9.4     c-0.1,1.3,1-0.2,1.4-0.4c0.5-0.1-0.1-1.9,0.3-3c0.4-1.1,2-3.7,2.6-5c0.8-1.3,0.9-1.9,2-2.9c1-0.9,3.9-4.1,4.8-5.2     c1-1.1,2.5-4.1,3.1-4.3c0.6-0.4,0.8,0,1.1,0.3c0.4,0.3-0.1,1.1-0.5,1.8c-0.4,0.6-0.8,2.3-1.6,3.3c-0.8,1-0.4,0.8-2,1.5     c-1.5,0.6-1,1.1-2.1,2.9c-1,1.8-0.8,1.1-2.5,2.3c-1.7,1-1.1,4.1-2.5,5.8c-1.3,1.6-2.8,5.1-2.7,7.5c0.1,2.3,0.4,1.3,1.3,1.5     c0.9,0.3,0.7-1.9,1.3-5.4c0.7-3.5,4.8-6.5,5.9-7.9c1-1.4,2-1.6,2.7-1.5c0.8,0.1-1.4,3.7-2,4.6c-0.5,1-4.3,5.7-4.6,7.5     c-0.3,1.9-3.3,6.1-4.3,7.1c-1,1-0.5,2.4,0,3.3c0.5,0.9,0.8-0.5,1.2-1.6c0.4-1.1,3-6.1,4.1-8c1-1.9,2.5-2.4,3.4-2.7     c0.9-0.2,0.2,1.4-0.5,2.7c-0.8,1.1-3.3,7.7-4.2,8.7c-0.9,0.9,0.4,0.9,0.6,0.8c0.1-0.1,3.7-6.8,4.3-8.3c0.9-1.6,2.2-1.5,2.6-2.4     c0.4-1.1,2.5-4.3,3.3-5.6c0.8-1.3,2.8-4.8,4.3-6.5c1.5-1.5,1.7-0.7,2.2-0.1c0.5,0.6-2.4,3.2-2.4,3.2c-1,0.6-0.9,2.8-1.6,4.3     c-0.5,1.4-0.3,1.1-0.8,2.3c-0.5,1.1-2.7,2.8-3.2,2.9c-0.5,0.1-2.5,2.4-3,2.9c-0.4,0.6-0.9,3.2-1.1,4.6c-0.1,1.4-0.5,1.4,0,1.8     c0.4,0.1,3.1-3.7,3.8-4.1c0.6-0.4,0.2,1.3-0.5,1.8c-0.8,0.5-1.6,3.6-1.7,5c-0.3,1.4-0.4,1.3-1.4,2.4c-0.9,1.1-3,4.2-4,5.1     c-1,1-2.2,2.9-3,3.9c-0.8,1,0.9,0.9,1.3,0.5c0.5-0.4,1-2.4,2.4-3.6c1.2-1.1,3.9-4.6,4.7-5.1c0.6-0.5,0.2,1.5,0.1,2.8     c-0.1,1.3-2.6,4.1-3.9,4.8c-1,0.6-3.3,4.1-3.5,5.5c-0.2,1.4-1.9,4.3-2.9,6.3c-1,1.9-2.9,4.3-4.3,5.7c-1.5,1.3,1.8-0.5,2.5-0.9     c0.6-0.1,2-2.4,2.7-2.7c0.8-0.1,3.3-3.9,5.1-5.7c1.8-1.8,3.8-3.8,4.8-4.3c1-0.6,2.6-2.9,3.5-3.4c0.8-0.5,1,0.8,2.2,1.4     c1.1,0.8,3.2-2,4.3-3.7c1-1.6,4.3-9.2,5.9-12.4c1.6-3.2,3.4-5.6,5.3-5.6C268.4,250.1,262.7,256.6,262.7,256.6z M267.5,257.8     c-2,1.6-2.1,2.7-3.2,2.8c-1,0.2,0.2-2.6,0.8-2.8c0.8-0.5,0.9-1.6,2.2-4.1c1.3-2.4,4.1-3,4.1-3     C274.5,250.9,269.6,256.1,267.5,257.8z M270.5,300.2c-0.8,1.3-2.6,3.3-3.9,3.7c-1.4,0.4-0.2-1.7,0.9-4.2c1.2-2.4,4.3-3.7,4.3-3.7     c0.6-0.4,0.1,0.5,0.5,0.8C272.7,296.6,271.3,298.9,270.5,300.2z M274.3,303.8c0.3-1.1,1.8-0.4,2-1.4c0.1-0.8,2-2.4,2-2.4     c0.3-0.4,0.6,0.3,1,0.5c0.4,0.3-0.7,1.8-1.4,2.2c-0.8,0.4-1,0.6-0.5,1.4c0.4,0.8-0.3,2.1-0.7,2.6c-0.4,0.5-0.3,0.9-0.5,1.8     C275.4,309.2,274,305.1,274.3,303.8z M278.4,313.6c-0.5-0.6,1.8-2.4,2.6-3.1c0.6-0.6,0.7-1.8,0.8-2.7c0.1-0.8,1.4-2.3,2.1-3.6     c0.8-1.1-0.5-1.5-1-2.1c-0.6-0.3-1.4,2.3-2.4,3.4c-0.9,1.1,0.1,1.4,0,2.2c-0.1,0.8-0.9,1.3-1.8,1.6s-0.3,1.3-1.2,1.6     c-1,0.4-1.1-1.2-0.7-1.8c0.4-0.5,0.8-1,0.8-2.1c0.1-1.1,1.8-2.4,2.4-3.1c0.6-0.6,0.8-2.4,1.6-2.9c0.8-0.5,3-2.7,3-2.7     c0.6-0.4,0.1,0.8-0.1,1.3c-0.3,0.4,0.6,0.9,1.1,1.7c0.5,0.6,0.8,0.1,1.5-0.1c0.8-0.4,0.6,0.1,0.9,1c0.2,0.9-0.4,0.8-1.5,1.5     s-1.2,1.3-2,3.1c-0.7,1.8-3.4,5.6-4.3,6.8C279.6,315,278.9,314.1,278.4,313.6z M280.7,248c0-0.3,0.4-0.6,1-0.6     c0.6,0,1.1,0.3,1.1,0.5c0,0.2-0.4,0.6-1,0.6C281.2,248.6,280.7,248.3,280.7,248z M286.2,291c0,0,0.1-0.1,0.5-0.1     c0.3,0,0.5,0,0.5,0.1c0,0.1-0.1,0.1-0.5,0.1C286.4,291.1,286.2,291,286.2,291z M285.5,311c-0.6,0.6-1,0.2-1.1-0.9     c0.1-1.3,1.2-0.9,1.2-0.9C286.3,309.1,286.2,310.2,285.5,311z M282.4,314.3c1.2-2.4,1.8-2.6,1.8-2.6c0.5-0.4,0.1,0.3,0.6,0.9     c0.4,0.6,0.4,2.1-0.4,2.6c-0.8,0.5-0.3,0.5-0.8,1.3c-0.4,0.8-0.9,0.9-1.7,1C281.2,317.6,281.2,316.7,282.4,314.3z M286.6,316.9     c-0.6,0.5,0,0.8,0,2.6c-0.3,1.8-1.2,1.4-3.1,0.7s0.5-1.9,1.4-3.1c0.9-1.1,0.8-1,0.9-1.9c0-0.9,1.3-0.4,1.3-0.4     C287.4,315,287.2,316.4,286.6,316.9z M288.5,321.3c-0.3,0-0.5-0.1-0.5-0.4c0-0.1,0.1-0.5,0.4-0.5s0.5,0.1,0.5,0.4     C289.1,321.1,288.8,321.3,288.5,321.3z M292.2,323.9c-0.3,0.6-1.4,1.9-2.1,2.4c-0.6,0.5-1.1-1.4-1-2.6c-0.1-1.4,3.1-1.9,3.2-2     C293.2,321.6,292.5,323.3,292.2,323.9z M287.5,282c0-0.5,0.3-0.8,0.5-0.8c0.2,0,0.6,0.3,0.6,0.8c0,0.5-0.3,0.8-0.5,0.8     C287.9,282.8,287.5,282.5,287.5,282z M291.7,290.9c-0.3,0-0.6-0.3-0.6-0.6c0-0.3,0.3-0.5,0.6-0.5c0.3,0,0.6,0.3,0.6,0.4     C292.3,290.6,291.9,290.9,291.7,290.9z M314.4,267c-0.9,0-1.5-0.5-1.6-1.3c0-0.8,0.5-1.4,1.5-1.5c0.8,0,1.5,0.5,1.6,1.3     C315.8,266.4,315.3,267,314.4,267z M336.1,248.8c0.2,1.4,0.2,7.3,0,9.3c-0.3,1.9-0.2,8.5-1.9,9.2c-1.4,0.6-0.6-1.5-0.7-2.2     c0.1-0.6-0.8-0.3-1.9,0.2s-1-1-0.6-2.3s-0.1-5.5-0.8-5.7c-0.7-0.2-0.3,0.9-0.3,2.2c0,1,0.1,1.9-1.3,2.2c-1.4,0.4-1.4,1.9-3.4,2.7     c-2,0.8-0.5-0.4-1-1.4c-0.6-1-0.6,0.1-1.4,1c-0.8,1-3.8-0.7-5.1-1.1c-1.4-0.4,1.2-2.6,2-2.8c0.8-0.1,1.3,0.8,1.8,0.4     c0.6-0.4-0.4-1.8-0.7-1.8c-0.3,0-1.5-1.3-1.1-2.3c0.3-0.9-2.3,1.8-3.7,1.9c-1.4,0.1-1-2.6-2-3.4s0.6,2.3,0.7,3.2     c0.2,0.9-1,1.1-2.1,0.7c-1-0.5-0.8,0.4-2.3,0c-1.5-0.4,0.3-3-0.3-4.2c-0.6-1.3-2,4.3-3.5,3.8c-1.4-0.5-0.2-2.3-0.6-3     c-0.4-0.8-0.6,0-1.7,1c-1.1,1-3.8-0.7-4.2-1.7c-0.4-1-0.2-1-1.9-1c-1.7,0.2-5.2-5.5-6.7-6.2c-1.4-0.5,0.5,2.5-0.5,3.1     c-0.9,0.6-2.6-1.6-2.9-3.4c-0.4-1.5-1.2-2.8-2.8-4c-1.6-1.3-12.3,2-13.9,1.6c-1.5-0.4,0.1-1.3,0.7-1.8c0.6-0.5,1.3-1.9,1.4-3.6     c0-1.8,1.2-5.8,2.1-6.7c1-1,1.1,2.2,0.9,3.2c-0.1,1.1,0.5,1.7,1.3,1.2c0.8-0.6,1.7-4.3,1.2-5.5c-0.5-1.3,0.8-2.1,2.1-2.4     c1.3-0.4,0.7,6.3,0.4,7.8c0,1.8,0.5,1,1.4,0.1c0.9-1,0.4-1.5,0-3.1c-0.2-1.5,0.6-5.7,1.8-6.8c1.2-1.1,0.6,1.4,1.6,3     c1,1.4,1.4-2.7,2.9-3.6c1.4-0.6-0.2,4.7-0.7,6.4c-0.7,1.8-1,0.6-2.7,0.1c-1.4-0.4-0.9,3.3-0.6,4.7c0.4,1.5,1-0.2,2.6-1     c1.5-1,1.4,1.8,1.5,3c0.2,1,1.3,0.5,1.4-0.5s-0.7-3.9-0.3-4.7c0.4-1,0.8-3.2,0.7-5c-0.1-1.9,3.3-3.9,4.3-3.7     c0.9,0.3-0.9,4.6-1.5,5.5c-0.5,1.1-0.2,3.5,0.3,4.9c0.6,1.4-2,3.3-1.9,4.7c0.1,1.4,2.1,0.4,2.5-1c0.4-1.4-0.3-4.5,0.3-6.2     c0.5-1.4,2.1-5.1,2.1-6.7c-0.1-1.6,1.3-5.4,2.5-4.8c1,0.5-0.8,4-0.4,5.8c0.4,1.8-1.2,3.8-1.9,4.6c-0.5,0.8,0.9,1.7,1.1,3     c0.2,1.3-1.8,2.9-1.4,3.6c0.4,0.6,0.2,4,0.8,4.6c0.6,0.7,0.4-1.4,0.5-2.4c0.1-1.1,2.5-3.6,2-4.7c-0.4-1.3-0.7-2.1-1.1-3.1     c-0.4-0.9,3.3-7.8,3.4-8.7s0.6-5.5,1.3-6.4c0.8-0.6,3.4-8.2,3.4-8.2c0-3.3,0.6-4.7,1.7-4.7c1,0-0.8,4.5-0.8,4.5s0.6,4.2,0.1,5.5     c-0.5,1.3-4.3,8.8-4.5,10.1c-0.1,1.3,0.5,2.7,0,4c-0.3,1.3-1.7,5.1-0.7,5.9c1,0.9,1.4-0.5,1.6-3.8c0.2-3.3,3.9-8.4,4.5-10.4     c0.4-1.9,0.6-6.3,0.7-8.1c0.3-1.8,2.1-3.8,2.5-5.1c0.4-1.4,1-1.8,0.9-3.1c-0.1-1.3,1.6-3.7,2.4-5c0.5-1.3,1.2-7.2,1.2-9.1     s1.8-1.5,3-1.1c1.1,0.4-0.8,4.1-0.8,5.7c-0.1,1.5,0.4,1.4-0.9,3.1c-1.3,1.5-2.5,5-3.4,7.7c-0.8,2.7-1.6,5.9-2.4,7.4     c-0.8,1.5-0.5,2.8-0.4,4.1c0.1,1.4-1,1.9-1.3,5.1s-2.7,7.9-3.4,9.6c-0.8,1.4,0.1,1.4,0.1,3c0.1,1.5-0.8,2.6,0,4     c0.9,1.4,1.4-1.1,2.9-3.1c1.4-1.9-0.1-3.7-0.2-5.1c-0.1-1.3,3.8-9.1,3.7-9.7s0.8-6.4,2.5-8.7c1.8-2.3,0.2,6.2,0.2,6.2     s-4.3,9.6-4,13.3c0.3,3.7-0.7,6.7-1.1,7.6c-0.4,1,0.4,2.1,0.9,2.8c0.5,0.8-1.7,3.8-0.7,5c1,1.2,2.1-2.8,2.2-4.3     c0-1.8-0.5-1.5-1.4-2.3c-0.8-0.5,1.4-1.8,2.5-4.2c1-2.3,0-3-0.6-4.5c-0.6-1.5,3-7.4,3.2-7.9c0.1-0.6,1.4-3.1,1.1-4.2     c-0.4-1.3,0.7-1.9,1.7-3.2c0.9-1.4,0.8-3.2-0.2-4.4c-1-1.4,3.8-9.5,3.8-9.5s0.9,0.3-0.1-1.4c-1.1-1.7,2.5-2.4,2.5-2.4     c1.4-0.4,1.5,1.8,0.7,2.3c-0.6,0.5-2.1,2-1.7,3.1c0.2,0.9-2.5,5.5-3.3,7c-1,1.6-0.4,4.6-1.1,5.4c-0.5,1,0,2.7-0.4,3.8     c-0.4,1.1-0.4,1.1-0.3,2.1c0.2,0.9-1.6,4.3-2.5,6.8c-1,2.4-0.8,3.8-0.3,5.4c0.6,1.5,0,3.7-1.2,5.5c-1.3,1.8,0.6,1.3,1.5,2.3     c0.9,1-1.3,2.9-1.6,5s3.3,2.6,4.1,2.2c0.8-0.1-0.4-1.4-1.1-3c-0.6-1.5,0.5-2.8,0-3.6c-0.5-0.8-1.1-3-0.3-4.4     c0.8-1.4,1.3-5.5,1.2-7.2c-0.1-1.4-0.1-3.7,0.7-5.7c0.9-1.8,1.2-2.1,0.9-3.1c-0.1-0.8,2-5.2,3.2-7.7c1.3-2.4,0.7-4,1.2-4.7     c0.5-0.8,1.3,1.3,1.4,2.6c-0.1,1.3-0.9,4.2-2.4,6.7c-1.4,2.4-1.3,2.7-0.7,5.4c0.6,2.5-2,4.3-2.3,5.8c-0.4,1.4,0.5,5,0.6,6.7     c0.1,1.5-1,1.9-1.3,4.3s2.3-1,3.5-3.6c1.2-2.7-0.1-4.9,2-5.6c1.8-0.7,2.2,2.7,3.4,2.7l0.3,0c0,0,0.5,1.4,0,2.1     c-0.6,0.6,0,1,0.5,1.8c0.5,0.6,0.2,1.4,0.1,2.2c-0.3,0.8-1.4,2.3-0.8,3.5c0.6,1.4,1.2,3.5,1.6,5.9c0.2,2.3,0.7,2.8,1.6,1.7     c1-1.3-0.5-9.4-0.3-10.7c0.3-1.3,1.4-0.9,2.6-1c1.4-0.4,0,1.9-0.8,3.1C334.3,245,336.1,247.4,336.1,248.8z M340,268     c-0.1,1.1-1.8,0.7-2.6,0c-0.6-0.8,0.4-4.2,0.7-5.4c0.1-1.1-0.3-3.6-0.2-4.7c0.1-1.1,0.5-2.2-0.1-3.6c-0.6-1.4-0.6-3.2-0.2-4     c0.3-0.6,0.4-4.6,0.4-4.6c1-1,1.3,1,1.4,1.7c0,0.5,0.9,1,0.5,1.5c-0.3,0.4-0.8,1.3-0.3,1.8c0.5,0.4,0.1,2.7-0.2,3.6     s1,4.2,1.5,5.4c0.6,1.3,0,2.1-0.3,3.6C340.6,264.6,340.2,266.7,340,268z M342.5,278.4c-0.3,0-0.6-0.4-0.6-0.9     c0-0.5,0.3-0.9,0.5-1c0.3,0,0.6,0.4,0.6,0.9C343.2,277.9,342.9,278.4,342.5,278.4z M342.5,263.6c-1.1-0.1,0.2-4.6,0.2-4.9     s0.6,0,0.1-1.1c-0.5-1,0.5-1.1,0.5-1.1c1.3-0.2,0.7,1.8,0.4,2.2c-0.5,0.4,0.2,1.3,0.7,2.8C345.1,263.4,343.7,263.7,342.5,263.6z      M343.4,248c-0.8,1,0.5,3.1,0.1,4.2c-0.3,1.3-0.5,0.8-1.8,0c-1.1-0.9-0.6-3,0-4.1c0.5-1.1,0.8-3.2,0.8-4.5     c-0.1-1.3,1.5-0.4,1.5-0.4C345.8,243.4,344,246.8,343.4,248z M344.4,238.9c-0.4,0.8-1.2,1.3-1.7,1c-0.5-0.3-0.5-1.3-0.1-2.1     s1.2-1.3,1.7-1S344.8,238.1,344.4,238.9z M347.6,261.4c-0.5,0-0.9-0.3-1-0.9c0-0.5,0.4-1,0.9-1c0.5,0,0.8,0.3,0.9,0.9     C348.4,261,348,261.4,347.6,261.4z M347,245c-0.6,0-1-0.9-1-2.1c0-1,0.4-2.1,1-2.1s1,0.9,1,2.1C348.2,244,347.7,244.9,347,245z      M472,180.7c0,0.1-0.1,0.4-0.3,0.4c-0.3,0-0.4-0.1-0.4-0.3c0-0.2,0.1-0.4,0.3-0.4C471.8,180.3,472,180.5,472,180.7z M466.2,132.3     c1.4-0.2,3.2,2,3.6,3c0.4,1-3.3-0.5-4.5-0.9c-1-0.4-1.3,0.2-3.2-0.9C460.2,132.2,466.2,132.3,466.2,132.3z M469.2,205.2     c-0.1,0.5-1.5,1.3-3.2,0.6c-1.6-0.9,1.7-4.5,1.7-4.5c0.8-0.8,2.9,3.2,2.9,3.2S469.6,204.7,469.2,205.2z M470,214.5     c-0.4,0.5-1.9-1.2-2.4-2.2c-0.5-1,0.5-2.2,0.5-2.2C470.3,209.3,470.4,214,470,214.5z M465.4,214.8c1,0,1.2,2.6,1.1,3.7     c0,1,0.7,2.7,0.7,4.1c0.1,1.4-1,0.5-2.1-0.5c-0.9-1-1.3-1.3-1.7-4.5C463.2,214.4,465.4,214.8,465.4,214.8z M466.4,180     c1.9,0.7,0.1,3.7-0.3,5.1c-0.3,1.4-1.6-0.9-2.5-3.5C462.7,178.9,466.4,180,466.4,180z M458.8,120.5c2.3-0.4,2.3,1.4,2.3,2.2     c0,0.6-1.2,1.3-3.5,0C455.4,121.5,458.8,120.5,458.8,120.5z M459.4,141.4c-0.1,0.8-3.7-1.7-5-3.4c-1.4-1.7,1.5-1.3,1.5-1.3     C457.3,137,459.3,140.7,459.4,141.4z M453.6,116.1c0.6-0.1,0.1,0.5,0.6,0.6c0.5,0.1,2.3,1.2,1.9,2c-0.3,0.8-1.9-0.3-2.4-0.7     c-0.5-0.6-1,0-2.1-0.7C451.1,116.3,453.6,116.1,453.6,116.1z M447.4,114.6c0.4-0.5,0.6,0.1,0.4,0.6c-0.3,0.4-3.8,4.8-5.7,3.5     C440.3,117.4,447.4,114.6,447.4,114.6z M447.1,124.8c0,0.3-1,0.4-1.4,0.1c-0.4-0.5,0.9-0.6,0.9-0.6S447.1,124.5,447.1,124.8z      M442.2,147.1c0.8-0.8,0-2.7,1.1-7.3c1.1-4.6,2.1-5.8,2.1-5.8c-1.5-5.3,2.1-5.1,2.1-5.1c1-1.3,4.2-0.2,4.2-0.2     c2.2,0.5,3.4,3.6,2.3,3.9c-1.4,0.2-1.8-0.9-2.6,0s2.3,2.7,1,2.8s-2.6-0.8-3.5,0c-0.9,0.9,1.5,1.3,2,2.6     c0.4,1.3,5.6,12.8,4.3,13.2c-1.3,0.2-2.9-2-5.1-4c-2.2-2.1,1.5,3.6,1.6,5c0.1,1.3-0.9,1.9-2.8-0.7c-2-2.6-1.6-1-1.5,0.6     c0,1.8,5.7,8.5,7.2,10.1c1.5,1.5,7.6,7,7.7,8.2c0.2,0.9,0.5,1.8,0.5,1.8c2.3,5.3,0.7,5.8-1.9,4.3c-2.6-1.4-7.2-7.4-8.5-7.2     c-1.4,0.2,0.8,4.6,3.4,7.2c2.7,2.5,2.1,4.9,1.7,5.3c-0.3,0.4,0,0.6,0.4,1.5c0.4,0.8,0.2,1.5,0.2,1.5l1,0.5c0,0,0.1,1.5-1.2,1.3     c-1.3-0.1-0.1-2.6-0.6-2.5c-0.3,0-1.3-0.9-1.6-3c-0.4-1.8-2.4-4.8-3.1-6.3c-0.6-1.5-2.4-2.6-3.8-4.4c-1.4-1.8-0.7-3.2-0.1-4.7     c0.8-1.3-4.2-5.3-6-6.9c-1.8-1.4-1.4-2.5-1-3.5c0.5-1-0.7-2.1-1-4.4C441.2,149.4,441.5,148,442.2,147.1z M460.9,187     c-0.3,0.4-0.5-0.9-0.5-1.3c0-0.3-0.4-0.8-0.4-1.5s0.9-0.2,0.9-0.2c0.4,0.1,0.1,1.4,0,1.8C460.9,185.7,461.3,186.8,460.9,187z      M445.5,200.7c-0.9-3,0.9-4,0.9-4c1.7-1,2,3.4,2.3,5.3c0.2,1.9,2.2,3.5,2.7,4c0.5,0.3,0.6,2.3,1.6,4.4c1,2.1-0.5,3.2-2.1,2.4     c-1.7-0.8-1.6-4.4-2.6-6.1c-1-1.5-1.6-2.2-1.6-2.6C446.5,203.3,446.4,203.4,445.5,200.7z M451.9,189.6c-1.5-0.4,0,3.7-0.3,4.4     c-0.3,0.6-1.4-0.1-1.6-1.7c-0.2-1.5-2.3-10.8-2.7-12.6c-0.4-1.8,2.2-1.5,2.6-2.4c0.4-1-0.8-0.4-0.8-0.4c-0.1-3,1-1.9,1-1.9     s4.3,5.8,4.9,6.6c0.6,0.9,0.2,1.5,0.4,6.4c0.2,4.7-1.4,3.1-1.7,3.1C453.2,190.8,453.6,189.9,451.9,189.6z M460,188.9     c2.2-0.2,0.2,3.1,0.2,3.1l-1.8,0.4c0,0-0.6,4.7-3,4.1C452.9,196,460,188.9,460,188.9z M460.3,197.1c1.4,0.5,1.1,3,1.1,3     s-1.4-0.4-2.3-1.2C458.6,198.3,460.3,197.1,460.3,197.1z M444.9,170.5c0.1,2.1-1.6,2.6-2.7,2.7c-1,0-3.8-2.2-4.3-3.4     c-0.5-1.3,2.7-2.8,2.7-2.8C444.7,168.6,444.8,168.6,444.9,170.5z M443.2,207.9c-1.4,0.1,0.1-1.1,0.1-1.1c0.4-0.5,0.8-0.4,1.5,0.1     C445.8,207.4,444.6,207.8,443.2,207.9z M438.8,180.2c2.6,2,0.2,2.8-0.8,3.2c-0.9,0.4-3.3-2.7-3.2-3.6c0.1-0.9,2.2,0,2.7-0.2     c0.5-0.1-0.4-1.3-2.9-3c-2.6-1.8-0.4-2.2-0.4-2.2c0.7,1.8,3.6,2.1,5.2,2.6c1.8,0.4,0.9,2.3,0.9,2.3     C437.5,179.8,438.8,180.2,438.8,180.2z M429,182.4c-0.9-0.9,1.7-2.4,1.7-2.4c0.8-0.5,4.2,3.4,4.2,3.9c0,0.5-1.7,0.7-1.7,1.6     c0,0.9-0.2,2.6-1.8,2.6c-1.5-0.1-0.5-1.4-0.1-2.2C431.8,185.1,429.9,183.3,429,182.4z M429.1,185.3c0,0.3-0.1,0.5-0.4,0.5     c-0.3,0-0.5-0.1-0.5-0.4c0-0.3,0.3-0.5,0.4-0.5C429,184.9,429.1,185,429.1,185.3z M439.2,175.1c-2.7-1.3-2.3-2.7-2.3-2.7     s0.1-0.4,0.5-0.4c0.3-0.1,0.8,0.8,1.5,1.3c0.6,0.8,2.6,1.2,3.1,2C442.8,175.9,442,176.4,439.2,175.1z M439.1,119.4     c0,0,2,2.1-0.8,3.5c-2.6,1.4-3.6-0.3-3.6-0.3C434.3,118.9,439.1,119.4,439.1,119.4z M430.1,142.8c1.8-0.7,3.3,2.1,3.6,3.6     c0.2,1.5-0.1,0.8-1.8,2.8c-1.7,1.9-4.1,2.7-6.1,2.6c-1.9,0.1-3.1-1.2-2.6-1.6c0.3-0.5,0-0.5,1.9-4     C427,142.5,430.1,142.8,430.1,142.8z M427.7,116.3c0.6,0.1,0.4,1.3-0.5,1.4c-1,0.2-0.4,0.6-1.8,0.5c-1.3-0.1,0.1-1.5,0.1-1.5     C425.8,115.9,427,116.3,427.7,116.3z M423.8,107c1.8-0.4,1.4,2.5,1.4,3.2c0,0.6-0.5,1.4-0.5,1.4c1.1,3.7,0.1,3.5-0.7,4     c-0.8,0.5-1.4-0.8-1.5-1.5c0-0.8-0.6-2.5-1.4-4.1C420,108.2,423.8,107,423.8,107z M421.2,120.2c1.3,0.8-1,2.4-2,1.6     C418.3,120.9,421.2,120.2,421.2,120.2z M417.5,110c0.6-0.4,0.9,0.1,1.3,0.4c0.4,0.3,0,0.9-0.9,0.6C417,110.8,417.5,110,417.5,110     z M417.4,160.5c1.2-1.1,1.8,0.4,2.3,1.2c0.5,0.8,1,1.4,1,1.4s0,0,0.9-1c0.9-1,3.6-3.9,3.6-3.9c2.1,0,0.7,3.5-0.1,5.1     c-0.7,1.8-4.2,1-5.4,1.3c-1.3,0.4,0.4,1.4,1.1,0.9c0.8-0.6,2.7,0.4,2.8-0.2c0.1-0.6,1.7-0.5,3.1-1.4c1.4-1,1.9-4.2,2.4-5.1     c0.4-1.1,1.6-3.6,4.5-4.4c2.8-1,1.2,4.4,0.8,4.6c-0.5,0.4-1,0.2-2,3.3c-0.8,3.2-5.6,6.2-10.1,6.8c-4.5,0.6-4.2-2.1-5-3.1     c-0.9-1-1.4-0.5-2.3-1.8C414.7,162.7,416.4,161.6,417.4,160.5z M419.1,176.8c-1.4-0.5,1.3-2.3,1.3-2.3c2.7,0,1.4,2,1.4,2     S420.5,177.5,419.1,176.8z M420.5,187.3c0,0-1.7,0.1-2.2-0.7c-0.5-0.6,1.9-0.2,1.9-0.2C420.9,186.4,420.5,187.3,420.5,187.3z      M417.3,181.5c4,1.6,0,3-0.9,3.3c-0.9,0.4,0.2,4.2,1.6,5.1c1.4,0.9,2.9,2.1,2.9,2.1s0.3-1.9,1.7-2.2c1.4-0.2,1.3,1.2,1,1.8     c-0.3,0.6,0.4,1.3,1.1,1.8c0.6,0.6,1.8,0.4,3.2,0.8c1.5,0.5,1.8-0.7,2-1.8c0.1-1.1-0.6-0.9-2.7-0.9c-2.2-0.3-0.4-1.4,0.4-1.8     c0.9-0.4,2.4,0.5,3.3,0.3c0.9-0.2,2.5-0.5,2.5-0.5s1.3,0.9,1.9,1.4c0.8,0.5,0.9,0.3,3.1,0.5c1.9,0.3,3.1,2,3.1,2s1.5-0.5,2.5-1     c0.9-0.5,0.5,4.1,0.5,4.1s-1,0.9-0.4,1.5c0.5,0.8-0.1,5.8-0.7,6.2c-0.6,0.4-1.1-0.8-1.5-2.7c-0.4-1.8-0.2-2.7,0.5-3.3     s-1.2-3.6-1.7-4s-1.4,0.5-1.4,0.5s-1.1-0.8-3.1-1.3c-1.9-0.5-1.4,0.2-1.4,0.2s-1.4-0.8-2.8-0.5c-1.4,0.1-1.9-0.9,1.1,2.2     s0.2,2.3,0.2,2.3c-4-1.4-4.5-0.8-5.7-0.2c-1.4,0.5,0.5,4.6-0.3,5.1s-1.7-3.9-2.4-5c-0.5-1.3-2.3-0.8-3.3-0.7     c-0.9,0.2-1.9-1.3-2.8-1.8c-0.6-0.4-2.1-0.4-5.5-1.6c-3.6-1.3-3.3-1.3-3.3-1.7c-0.1-0.5-2.2-1.8-3.4-3c-1.3-1.2,4.3-5.9,6.6-7.4     C415.4,180.1,417.3,181.5,417.3,181.5z M438.7,197.9c0,0.6-0.5,1.3-1.3,1.3c-0.8,0-1.4-0.4-1.4-1.2c0-0.6,0.5-1.1,1.4-1.1     C438.1,196.8,438.7,197.2,438.7,197.9z M435.3,226.9c0.1,1.5-2.3,0-3.2-0.7c-0.8-0.5,0.1-1.3,0.3-3.2c0.3-1.8-0.5-1-1-1.4     s-1-4.6-0.6-5.5c0.4-0.6,0.9-4.7,0.8-5.5c0-0.9,2.5-2,2.7-2.3c0.1-0.4,0.4-2.1,0.4-2.1c2,4.5-0.8,5.5-0.8,6.4     c0,0.9-0.2,8.8-0.2,9.6C433.7,223.3,435.2,225.5,435.3,226.9z M437.4,248.8c0.1,0.8,0.2,3.3,0.5,4.9c0.4,1.5-2,2.3-3.5,1.2     c-1.4-1,0-1.8,0.5-2.7c0.4-1,0.7-3.8,0.7-3.8C435.6,247.7,437.1,248.1,437.4,248.8z M437.2,244.3c0-0.3,0.3-0.5,0.6-0.5     c0.2,0,0.6,0.1,0.6,0.4c0,0.3-0.3,0.5-0.6,0.5C437.6,244.7,437.2,244.4,437.2,244.3z M430.9,252.2c-0.2-1.3-0.2-4.1-0.7-5.5     c-0.6-1.4,0.7-2.4,1.3-3.3c0.5-1,2.1,7.6,2.1,7.6c0,0.6,0,2.3-0.5,2.8C432.4,254.4,431,253.5,430.9,252.2z M431.9,257.8     c-0.1,0.9-2.5,1.2-3.1,0.9c-0.6-0.3,1.2-2.4,1.2-2.4C431.6,254.9,432,256.9,431.9,257.8z M432.8,237.5c-0.3,0-0.5-0.1-0.5-0.4     c0-0.3,0.3-0.5,0.4-0.5c0.3,0,0.5,0.1,0.5,0.4C433.3,237.3,433.1,237.5,432.8,237.5z M434.1,245.4c0-0.6,0.3-1.1,0.5-1.1     c0.3,0,0.6,0.4,0.6,1c0,0.6-0.3,1.1-0.5,1.1C434.4,246.4,434.1,245.9,434.1,245.4z M413.9,294.7c0.4,0.3,3.4-1.9,4.4-2.9     c1.2-1,5.5-5.6,6.7-5.6c1.2,0-0.1,1.3-0.7,2.1c-0.6,0.6-1.2,1-1.7,2.2c-0.3,1.1-3,3.6-3,4.2c0,0.6-4.9,3.8-7.8,5.4     c-3,1.6-2.6,1.6-3.2,1.2c-0.6-0.4,4.2-5.5,4.4-5.9c0.1-0.5,0-0.8-1.1-0.8s-5,1-5.1,0.3c-0.1-0.8,2-1.4,2-1.4     c0.1-0.1,0.9-1.1,0.9-1.4c0-0.5,3.5-2.2,4.8-3.2c1.2-1,5.6-5.7,7.4-6.7c1.8-1,3.2-2.3,4.1-2.3c0.9,0.3-1.2,2.6-1.7,3.3     c-0.8,0.8-3,1.5-4,3.3c-1,1.8-5.6,5.2-6.2,6.4C413.4,294.1,413.5,294.5,413.9,294.7z M392.8,248.7c-0.1-0.8,0.3-0.4,0.7-3.2     c0.4-2.8,1.3-2.9,1.3-2.9c2.6-0.2,0.7,3.7,0.2,4.7c-0.4,1,0.5,1.4,0.6,2.2s-0.6-0.1,0,1c0.6,1.3-0.5,3.1-1.8,2.9     c-1.3-0.1-0.5-2.5-0.5-3.2C393.5,249.7,393.1,249.7,392.8,248.7z M392.6,230.7c-0.5-0.3-1.3,0.6-2.3,0.6c-0.9-0.1-0.2-1-0.9-1.8     c-0.6-0.6-2.7,3.6-3.1,4.2c-0.6,0.6-1.4,0.5-1.9-0.9c-0.5-1.3,1.2-2.6,1.3-3.2c0.3-0.6,0.3-1.9,1.1-3.8c0.9-1.8,1.4-9,1.9-10.1     c0.8-1.1,3,0.3,2.1-0.7c-1-1,0-2.8,0-2.8c0.4-0.6,2.6,1.8,3.9,3.1c1.2,1.4,0.7,3.2,0.7,3.2s0.5-0.1,1,0.5c0.5,0.8-0.2,6-0.2,7.4     c0.1,1.4-1.7,3.3-2.1,4.2c-0.3,0.8-0.7,3.3-1.6,3.7c-0.9,0.5-1.4-0.5-1.3-1.2C391.8,232.6,392.9,230.9,392.6,230.7z M389.2,236.5     c-0.9,0.6-0.7-1.8-1.4-2.7c-0.6-0.9,2.1-0.9,2.1-0.9C390.8,232.8,390.1,235.9,389.2,236.5z M384.3,243.7c0.2,0.9-1.3,3.7-1.3,3.7     c0.1,1.4,1.1,4,0.5,4.9c-0.8,0.8-2.7-1.2-3.1-2c-0.4-0.8,0.3-1.8-0.1-2.3c-0.4-0.6,0.9-4,1.6-4.7c0.5-0.8,1.4-3.2,1.6-5.5     c0.3-2.3,2-2.6,2-2.6c0.8-0.6,1.4,0.9,1.6,2.3c0.2,1.3-2.4,3.2-3.1,3.9C383.3,241.9,384.1,242.9,384.3,243.7z M392.2,165.6     c1.2-1.6,2.4,1,2.7,1.2c0,0,2.1,0.5,2.9,1.6c0.9,1-2.8,1-4.9,0.2C390.9,167.6,391.2,167.1,392.2,165.6z M392.3,158     c1.3-0.4,1.3,1.2,1.6,2.6c0.4,1.4,1.3,0.8,2.2-0.6c0.9-1.1,2.5-0.6,2.5-0.6c2.9,2.6-1.1,4-1.6,4.5c-0.3,0.4-1,0.2-1.5,0.2     c-0.5,0-1,0.5-3.4-2.2C389.7,159,392.3,158,392.3,158z M421.4,218.8c1.6,5.8,0.3,4.7-0.2,4.7c-0.5,0-0.8-0.4-0.5-1.5     c0.3-0.9-1-2.3-2.4-4.5c-1.4-2.2,0-2.6,0-2.6C419.8,214.9,421.4,218.8,421.4,218.8z M419.2,211.2c0-0.1,0.1-0.1,0.1-0.1     c0.1,0,0.1,0,0.1,0.1c0,0.1-0.1,0.1-0.1,0.1C419.2,211.3,419.2,211.3,419.2,211.2z M405,262.4c0.5-0.4,1.9,3.2,2,4.5     c0.2,1.3,0.2,1.9-0.4,2.1c-0.6,0.1-1.4-0.4-1.9-1.4s-0.4-1.4-1.2-2.6C402.7,263.4,405,262.4,405,262.4z M403.5,245.2     c2.9,2,1.4,3.1,0.2,3.1c-1,0-0.5-1.7-1-2.2C402.3,245.7,403.5,245.2,403.5,245.2z M405.4,233c-0.3,0-0.6-0.3-0.6-0.8     c0-0.5,0.3-0.8,0.5-0.8c0.3,0,0.6,0.3,0.6,0.8C406.1,232.6,405.7,232.9,405.4,233z M404.7,230.3c-0.9,0.4-1.5-2-1.6-2.5     c0-0.5-0.6-0.1-0.9,0.5c-0.4,0.6-0.9,1.6-2.3,0.6c-1.4-1.2,0.5-7.3,0.6-9.6c0-2.3,0.3-1.8-1.1-3.1c-1.5-1.3,0.3-4.2,0.3-4.2     c0.8-0.8,1.8,1.3,2.8,2.2c1,0.9,1.5,2.7,2.2,2.1c0.5-0.8,2.5-1.2,2.8-0.2c0.4,0.9-1.3,10.1-1.4,12     C406.1,230.1,405.6,230.2,404.7,230.3z M400.9,251.6c-0.1,0.6-1.4-0.3-2.3-1.2c-0.6-0.9,0-0.6-1.2-3.2c-1.2-2.6-0.4-2.1,0.2-3.2     c0.7-1.1,1.5-1.3,1.5-1.3c0.6-0.4,0.7,3.1,1,4.5C400.4,249,401.1,251.1,400.9,251.6z M417.1,247.4c0,0-1.9,0.2-2.7-2.6     c-0.7-2.8,1.3-2.7,1.3-2.7c0.9,0,1,1.2,1.5,3.1C418.3,247.3,417.1,247.4,417.1,247.4z M419.4,257c0.8-0.1,1.6,1.5,1.4,2.5     c-0.1,0.9-1.5,0.4-2.7-0.8C417.1,257.5,419.4,257,419.4,257z M412.8,268.4c-0.4-1.3,1.3-0.4,1.3-0.4s3.1,2.7,3.2,5     c0.2,2.2-1.3,3.6-2.4,3.4c-1.1-0.1,0-2.8,0.3-3.7C415.3,271.5,413.1,269.6,412.8,268.4z M411.8,265.8c-0.9,0-1.8-0.9-1.8-1.4     c0-0.8,1.5-1.1,1.5-1.1c0.1-0.4,1,0.4,1.4,0.8C413.4,264.3,412.7,265.8,411.8,265.8z M415.3,227.6c-0.5,1.1-0.4,1.5-1.7,2.4     c-1.2,0.9-0.9-1.2-0.4-2.1c0.3-0.6-0.3-3.5-1.1-4.9c-0.9-1.4,0.4-1.1,0.4-1.8c0-0.8,0.4-1.1,0.4-1.1     C414,219.4,415.8,226.6,415.3,227.6z M412.7,246c0.2,0.9,2.4,4.9,2.4,4.9l-1.5,1c0,0-2.4-1.4-3-5.8s1.4-3.6,1.4-3.6     C413.5,242.7,412.5,245,412.7,246z M411,221.3c-0.3,0.4-0.9,4.9-0.9,4.9s-0.1,1.5-1.5,0.4c-1.6-1.2,1-8.1,1-8.1     C410.8,217.3,411.2,220.9,411,221.3z M409.4,258.2c0.5,0,2.4,3.5,1.4,3.7c-0.9,0.2-2.2-3.2-2.2-3.2     C408.4,258.2,409.1,258.3,409.4,258.2z M410.4,286.2c0-0.3,0.5-1.3,1.7-1.5c1-0.2,3.6-2.7,4.1-3.7c0.4-1,2-2.2,2.5-2.2     c0.6,0,0.2-4.7,0.3-5c0.3-0.4,1.3-1.9,1.3-2.3c0-0.3-0.8-0.5-1.3-0.9c-0.5-0.4,0.4-2.2,0.4-2.2c0.6-0.1,1,0.4,1.3,0.9     c0.5,0.4,0.5,3.5,0.5,4.4c0,0.9,0.9,1.4,0.7,2.1c-0.1,0.6-2.4,4.3-2.9,5.5c-0.5,1-3.9,5.1-4.8,5.6c-0.9,0.4-3.5,2.5-5,3     C407.2,290.1,410.4,286.5,410.4,286.2z M420.4,251c-0.5,0,0.4-2.6,0.4-2.6C422,248.5,420.8,251,420.4,251z M421.8,261.6     c0.1,0,0.4,0.1,0.4,0.3c0,0.1-0.1,0.4-0.3,0.4c-0.1,0-0.4-0.1-0.4-0.3C421.4,261.6,421.7,261.6,421.8,261.6z M419,223.4     c0.4,1-0.7,2.6-1.3,2.3c-0.6-0.4-2.5-6.1-2.5-6.6c0-0.5-0.2-0.9-1.4-1.7c-1.1-0.5-0.9-1.5-1.5-2.5c-0.8-0.8,1.4-1,1.4-1     c1.4-0.4,2.4,2.5,2.8,3.2C416.9,217.9,418.8,222.4,419,223.4z M413.3,201.8c-0.6,0.4-1.5-0.8-2.2,0.1c-0.8,0.8,0.1,2.7-0.8,4     c-0.9,1.3-3.1,0.1-4.7-1.1c-1.6-1-3.8-2.5-5-2.6c-1.2-0.1-2.2-1.4-1.1-3.7c0.8-2.3,3.5-0.1,3.5-0.1c0.8,0.4,0.5,0,0.4-1     c0.1-0.8-0.2-2.6,1.4-4.1c1.5-1.5,4.1,0.7,7.3,3.4C415.1,199.7,413.9,201.5,413.3,201.8z M402.9,189.8c-1,0.2-3.4,2.8-5,3.2     c-1.8,0.4-1.3-1-0.7-2.5c0.5-1.4,0.4-2.6-0.5-3.9c-1-1.5-1.5-5.7-0.3-6.4c1.3-0.6,3.8,2.4,3.8,2.4s0.2,0.9,0.9,2.1     c0.6,1,1.3,0.8,2.4,1.3C404.4,186.4,404,189.6,402.9,189.8z M392.7,191.1c0,0.1-0.1,0.4-0.5,0.4c-0.1,0-0.5-0.1-0.5-0.3     c0-0.2,0.1-0.4,0.5-0.4C392.6,190.9,392.7,191,392.7,191.1z M396.1,267.7c1.4-0.9,2.2,1.4,2.6,2c0.6,0.6,3.9,3.6,4.3,4.4     s-2.1,0.9-2.8,0.9c-0.9,0-1.9-2-2-2.7c0-0.9-0.9-1.5-2.8-2.7C393.5,268.4,396.1,267.7,396.1,267.7z M401.8,268.9     c-0.9-1.5,0.4-2.2,0.4-2.2c0.6-0.4,3.2,3.6,3.8,4.4c0.6,0.8,1.4,2.3,1.4,3c-0.1,0.8-1.4,0.2-2.3-0.8     C404.1,272.1,402.6,270.6,401.8,268.9z M423.1,218.8c0-0.5,0.3-0.8,0.8-0.8c0.5,0,0.8,0.3,0.8,0.8c0,0.5-0.3,0.8-0.8,0.8     C423.5,219.6,423.1,219.3,423.1,218.8z M426.9,275.9c0.4,0.3,0.6,1.3-0.3,1.3C425.6,277,426.9,275.9,426.9,275.9z M410.2,167.8     c2.3-0.9,2.7,0.7,2.7,0.7c0.5,1.3,2,2.7,1.6,3.2c-0.1,0.5-0.1,0.9-0.3,1.8c-0.1,0.9-2.2,2.8-2.2,2.8c-0.4,5.4-3,3.9-3,3.9     c-3.6,1.7-5.3,0.6-5.3,0.6c-5.5,0.6-5.8-1.3-6.5-2.5c-0.9-1,0.8-1.1,1-2.1c0.3-0.9,0.3-3.2,0.9-4c0.4-0.8,0.4-1-0.4-2.2     c-0.9-1.2,0.7-1.8,1.4-3.2c0.8-1.5,1.7-0.5,1.7-0.5c0.1,0-0.5,1.3-0.8,1.5c-0.1,0.4,0,1,0.1,2.1c0,0.9-0.1,0.9-0.4,1.8     c-0.3,0.9,2.9,1.6,3.3,1.3c0.5-0.4,0.4-4,0.4-4.7c0-0.8-0.8,0.1-1.9,0.2c-1,0,0-1.9,0.7-2.7c0.8-1,0.9,0.3,1.4,0.8     c0.5,0.4,1.3-0.5,2.3-0.6C408.9,165.6,410.2,167.8,410.2,167.8z M397.3,114.4c1.3-0.4,2.9,3.6,3,4.1c0.1,0.6-0.5,0.8-0.5,0.8     c0.5,4.4-1.7,3.3-2.5,2.9c-0.5-0.4-0.2-1.9-0.5-1.8c-0.3,0-0.2-0.9,0-2.2c0.3-1.3-0.9-1.5-1.6-2.3     C394.4,115.1,397.3,114.4,397.3,114.4z M391.5,137.4c2.3-1.1,3.1,1.2,3.1,1.2c0.4,0.8-0.7,5.5-0.5,7.3c0.4,1.7,1.4,0.8,2.3-0.6     c0.9-1.3,0.4-4.6,2-5.1c1.5-0.5,1.1,2.3,1.7,3.4c0.5,1,3.2,1.7,4.3,2.9c1.1,1-0.2,7.2-1,9c-0.9,1.8-3.2,0.5-6-0.2s-1-2.8-2.4-4.3     c-1.3-1.5-5.9-2.1-5.6-3.3c0.1-1.1-1.1-2.1-1.2-3c0-0.9,0.9-0.5,0.5-2.2C388.7,140.5,389.2,138.6,391.5,137.4z M381.6,131     c1.2-1.9,4.9-3,4.9-3c4.1,0-2.4,3.2-3.5,4.1c-1,0.9-2,1.6-2.6,0.9C379.5,132.3,380.4,133,381.6,131z M373.7,138.8l0,0.5     c-3.5,3.6-5,1-5,1C368.3,137.8,373.7,138.8,373.7,138.8z M364,150c-2.1-0.7,1.8-2.3,1.8-2.3s0.8-0.1,1.1,0.9     C367.5,149.5,366.2,150.8,364,150z M368.2,153.1c-1.3-0.8,1.3-1.6,1.3-1.6s0.5,0.9,0.5,1.4C370,153.5,369.6,154,368.2,153.1z      M370,150.4c-0.6-0.9,1.6-2.7,1.6-2.7C373.4,149.3,370.7,151.2,370,150.4z M371.9,156.9c-1.5,0.4-0.4-2.3,0.3-4.2     c0.7-2.1,2.5-3.8,2.8-5.8c0-1.9,3.1-3.2,3.8-4.1s-0.1-0.3-1.1-1.5c-1-1.4,1.7-1.6,3.2-2.9c1.5-1.3,4.9-2.8,4.9-2.8     c2.3,0.3,0.2,2.7-0.8,3.6c-1,1-1,2.1-1.1,3.7c0,1.8-2.3,2-5,3.3c-2.8,1.2-2.3,1.5-1.3,2.3c0.8,0.8,0.9-0.4,3.4-1.4     c2.5-1,2.4,0.5,3.3,1.6c1,1-1.2,4.5-2.9,5.1c-1.7,0.7-5.1,7.4-6.4,7.4c-1.3,0.1-0.3-4.2-0.2-5.1     C374.5,154.7,373.6,156.5,371.9,156.9z M362,180.6c4.4-1,9.3-7,10.4-8.6c1-1.6,0.4-2.7,1.3-3.7c0.8-0.8,2.1-2,2.2-3.1     c0-1,2.1-3.2,3-4.7c0.9-1.3,1.4-3.6,2.1-4.8c0.5-1.3,1.7-0.7,2.5-1.2c0.8-0.5,1.2-1.1,1.2-1.1c3.6-1.5,1.6,4.6,1.2,5.7     c-0.5,0.8,0,3.1,0,3.1s-1.9,5.2-1.3,6.2c0.5,0.9,0.7,2.1,0.5,4.2c-0.3,2.1,3.9,5.2,5.3,8.1c1.4,2.7-0.2,3.6-0.2,3.6     c-0.5,1,0.5,3-0.3,3.5c-0.9,0.4-0.7,1.8-0.7,2.2c0,0.6,1.3,0.9,1.1,1.5c-0.1,0.6-1.2,1.4-1.4,2.9c-0.3,1.4,1.1,0.8,1.9,1.3     c0.8,0.5,0.1,2.1,0.7,4.2c0.7,2.2-1.2,7.9-1.9,8.8c-0.5,1,0.1,1.3-0.3,2.3c-0.3,1.1-2,3.2-2.5,4.5c-0.5,1.3-6.1,8.4-6.8,10.1     c-0.8,1.4,0,1.8,0,3.1c0.1,1.4-1.7,1-2.8,0c-1-1.2-0.2-7.2-0.3-7.8c-0.4-0.6,0.9-2.8,2.5-5.1c1.4-2.3,3-4.7,2.1-5.1     c-0.8-0.4-2.2,2.9-2.2,2.9s0,0-0.1,0.1c-4.1,2.8-2.9,5.3-3,6c0,0.8,0.4,1.3-0.1,1.4c-0.6,0.1,0.1,0.6,0.1,0.6     c-2.1,5.5-2.8,1.2-2.8,1.2c-1.1-7.3,2.2-8.8,2.2-8.8l1.2-1c0,0-0.6,0.4,0.9-2.8c1.6-3.2,3.6-9.5,5.3-10c1.5-0.5,0.5,4.2,1.5,4.5     c1,0.4,0.9-3.5,0.9-3.5c0.3-1.3,0.1-0.8-0.9-1.2c-1-0.4,0-2.1,0.8-2.4c0.8-0.3,0.5-2.2,0.5-3.1c0-0.6-1.8-0.5-2.9-1.4     c-1.1-0.9,2.6-4.2,2.1-4.6c-0.5-0.6-2.3,2-2.3,2c-4.1,0.6-4.5,1.9-5,2.8c-0.5,0.8-1.4,0.4-1.8-1.2c-0.4-1.5,2.5-2,2.7-2.3     c0.3-0.4,1.7-2.2,2.5-2.3c0.8-0.1,2.5-2.2,2-3.1c-0.5-1-2.7,1.6-2.7,1.6c-4.5,1.5-6.1,5.1-6.6,6.1c-0.5,1-0.6,4.2-1.1,5.4     c-0.4,1.1-2.7,1.5-4.5,1.1s2.6-5.2,3.4-5.6c0.8-0.5,1.2-4.5,1.7-4.7c0.5-0.4,4.3-3.3,4.9-3.7c0.6-0.4-0.2-0.9-1-0.9     c-0.8,0.1-0.3,0.8-1.3,1.3c-1.3,0.5-5.6,5.1-6.5,6c-1,0.9-1.3-0.3-1.4-1c-0.2-0.9,3.6-4.2,4.3-5.3c0.8-1.1,5.8-3.7,6.5-5.6     c0.7-2.1-5.3,2.4-6.1,2.9c-0.9,0.5-0.6-0.9-0.1-2.7c0.5-1.5-0.9-1-0.9-1c-8.5,5.4-12.5,5-13.7,4.5     C356.6,181.9,357.5,181.6,362,180.6z M359.4,216.4c0.6-0.1,0.9,0,1.1,0.8c0.1,0.8-2,2.8-3.9,1.7     C354.8,217.9,359.4,216.4,359.4,216.4z M357.3,210.5c-1.5-1.8,2.5-2.3,2.5-2.3c0.3-0.1,1,0,0.9,1.4     C360.4,211.2,357.3,210.5,357.3,210.5z M362.3,223.7c0.3,0-0.3,2.2-1.3,2.4c-1,0.4-0.4,1.5-1.7,2.2c-1.3,0.5-1.8,0-2-2.1     C357.3,224.1,362.3,223.7,362.3,223.7z M360.4,199.4c-1,1.3-0.6,0.4-2.2-1.3c-1.4-1.8,4.3-3.8,4.3-3.8s1.8,0.5,1.9,1.7     C364.5,197.1,361.4,198.1,360.4,199.4z M360.2,192.4c-1.3,0.5-2.8,0.6-3.6,1.5c-0.8,1.1-0.8,3.2-1.9,4.2c-1,1-1-1.2-1-2.3     c0.1-1.1,2-2.9,2.8-5c0.8-2.1,4.6-1.1,4.6-1.1C362.4,190,361.5,191.9,360.2,192.4z M357.1,212.7c0,0,1,0,1.3,1.3     c0.2,1.3-4.5,2.5-4.9,0.7C353.2,212.8,357.1,212.7,357.1,212.7z M357.8,249.3c1-0.5,0.5,0.6,1.3,0.4s2.6,0.5,2.6,0.5     c-0.9,1.6-4.5,0.3-5.5-0.1C354.9,249.4,356.7,249.7,357.8,249.3z M360.1,245.3c0.3-0.8,3-0.1,3-0.1     C361.3,246.4,359.9,246.1,360.1,245.3z M360,233.1c-1.4-0.9,1.6-4.1,2.4-5.2c0.8-1.1,2.2-0.2,2.2-0.2c0-0.9,1.3-1.5,1.3-1.5     c0.3-0.4,0.5,0.9,0,0.9c-0.5,0-0.4,0.6-0.9,1.1C364.5,228.9,360,233.1,360,233.1z M365.1,220.1c0.3-1.1,1-0.4,1.9,0.4     s-0.4,1.3-0.4,1.5s-1,1.4-1.8,0.9c-0.8-0.5,0.5-1.4,0.5-1.4L365.1,220.1z M368.1,229.7c2-1.5,1.3,0.3,1.3,0.3s-2.2,1.1-0.4,0.5     c1.7-0.7,1.3,0.5,1,0.5c-0.3,0,0.4-1.3-1.7,2.2c-2.1,3.3-3.9,2.5-3.9,2.5C362.4,234.2,366.2,231.3,368.1,229.7z M371.2,233.4     c0.5,0,1.1,0.4,1.1,1c0,0.6-0.4,1.1-1,1.1c-0.6,0-1.1-0.4-1.1-1C370.1,233.9,370.5,233.4,371.2,233.4z M370.7,206.9     c-1.3,0.5-3,3.4-3.6,4.1c-0.5,0.8-1.2,4.6-2.5,3.4c-1.3-1.2-0.5-4.1-0.8-6.4c-0.6-2.2,1.4-3.3,2-3.3c0.5,0,1.2-2.6,2-2.9     c0.9-0.4,3.1,1.4,3.1,1.4c1.5,0.4,1.3-0.2,2.6-0.1C374.6,203.4,372,206.4,370.7,206.9z M355.8,186.5c2.3-1.6,2.3-0.1,4.7-0.2     c2.3,0,4-1.4,4-1.4c3.3,0.8-2.9,3.4-3.6,3.2c-0.8-0.3-2.7,0-4.4,0.5c-1.5,0.5-2.2,2.8-3.5,2.2     C351.5,190.1,353.4,188.1,355.8,186.5z M353.3,249.5c0.9-1.6,2.2-0.1,2.2-0.1c-0.1,0.9-0.5,1.8-1.8,1.9     C352.3,251.5,352.2,251.1,353.3,249.5z M352.4,256.1c0.7-1.9,5.4-1.3,5.4-1.3c2.6-0.2-1.3,2.3-3.4,2.4     C352.3,257.1,352.4,256.1,352.4,256.1z M349.7,232.8c0.5,0,0.8,0.4,0.9,1c0,0.6-0.4,1.1-0.8,1.1c-0.5,0-1-0.4-1-1     C349,233.5,349.2,232.9,349.7,232.8z M350.1,242.4c-0.6,0.4-0.1,1.4-0.3,1.9c-0.1,0.6-0.5-0.1-0.9-2.3s1.4-2.4,1.4-2.4     C351.3,239.3,350.8,242,350.1,242.4z M352.4,267.3c-1.3,0.1,0-3.6,0.8-5.4c0.9-1.9,5.1-1.6,5.1-1.6c1.3-0.1-0.4,1.5-1.5,1.6     c-1.3,0.1-1.8,0.9-2.6,2.4C353.7,265.9,353.6,267.2,352.4,267.3z M364.1,292.5c-1-1.4,5.8-1.6,5.8-1.6c1.9-0.2,0.2,2.3,0,3.7     C369.4,296.3,365.1,293.8,364.1,292.5z M371.4,298.7c0,0,0,0,0.1-0.4c0.3-0.4,2.6-1,2.6-1c2.2,0-0.4,1.9-1.2,2.3     c-0.8,0.4-2.1,0.4-2.8,0.5c-0.7,0-0.5-0.6,0.1-1.1C370.9,298.5,371.4,298.7,371.4,298.7z M371,312c1.3,0.3,0.1,2.1-1,1.8     C368.8,313.3,371,312,371,312z M386.3,346.4c-1.4-0.8-0.8,2.7-1.7,4.2c-0.9,1.4-3,1.5-4.1,0.7c-1.1-0.8-0.5-2.8-2.7-3.6     c-2.1-0.8-1.4,0.2-4,1.2c-2.6,1-2.9-3.4-2.6-5.7c0.5-2.4,2.4-3.2,2.3-0.6c0,2.7,1.9,3.5,1.9,3.5c0.6,0.4,0.5-1.9,0.9-2.8     c0.4-1,1.3,0.3,1.8,1.4c0.5,1.3,0.6,0.8,0.9,0.1c0.1-0.8,1.8-1.4,2.5-1.4c0.5,0,0.4,2.1,0.9,2.6c0.5,0.6,0.3-1.8,0.5-3.2     c0.4-1.3,2.1,0.7,2.7,1.6c0.9,0.9,0.8-1,1.8-1.9c1.2-1,2,3.2,2.3,4.1C390.2,347.7,388,347.2,386.3,346.4z M396,348.1     c-0.9-0.1-0.2-1.3-1.4-1c-1.3,0.2-1.1,4.9-2.5,5.2c-1.4,0.4-2.5-2.9-2.5-4.1c0-1,1.5-1.3,2.1-2.3s-1.1-3-2-3.7     c-1-0.9-2.7-2.1-4.6-2c-1.9,0.1-1.7,0.5-1.8,0.7c-1.4,0.6-1.3,0.4-1.4-0.9c-0.4-1.3,1.1-4.1,1.7-5.2c0.5-1.1,1-1.6-0.4-2.1     c-1.4-0.5-1.9,4.2-2.6,5.2c-0.8,1.1-1.1-0.1-1.1-1.5c-0.1-1.5,0-1.8-1.5-2.7c-1.6-1-0.1-1.3-0.5-1.8s-2.2,4.1-3,4.7     c-0.8,0.6-1.4-0.3-1.6-1.2c-0.2-0.9,1.1-3.7,0.3-4.7c-0.9-1-0.1-1.4,0.4-2.2c0.4-0.6,0-0.3-0.9-1.8c-0.6-1.5,2-3.1,2.6-5.2     c0.7-2.2,0.7-2.7,0.7-2.7l0-0.1c0.6-0.6,2.7-2.8,2.1-3.6s-1.3,0.2-2.1,0.9c-0.8,0.7-1-0.9-0.7-1.8c0.3-0.9-0.1-2.7-0.8-4.4     c-0.7-1.7,2.7-3.7,4.4-3.8s0.7,1.8,1,1.8c0.3,0,2.6,1.4,1.5,2c-0.9,0.6-1.2,1.8-1.4,2.9c-0.1,1.1,1.4,0.3,2.6-0.2     c1.3-0.5,3.8-3.4,5.3-4.3c1.4-0.9,2.7-2.7,1.4-2.7c-1.3-0.1-3.2,1.1-4.1,0.7c-0.8-0.4-3.3-1.2-4-1.9c-0.8-0.8,0.1-1.5,0.2-2.6     s0-0.9-0.7-2.2c-0.6-1.3-0.1-3-0.6-3.7c-0.5-0.8-1.7,1-3,0.7c-1.1-0.3-0.4-1.7-0.2-2.3c0.1-0.6-7.9-6.8-8.6-7.7     c-0.8-0.8-4.2,0.5-5.1-0.4c-1-0.9,4.1-2.7,4.1-3.7c-0.2-0.9-5.1,1.1-6.3-0.2c-1.3-1.3,2.1-3.2,3.3-4.2c1-1.1-0.9-1-2.3-0.4     c-1.4,0.6-2,2.6-3.2,2.3c-1.1-0.3,1.7-4.6,2.6-5.2c0.9-0.6,2.1-0.5,1-1.1c-1-0.5-4.1,2.8-5,4.2c-0.9,1.3-1.5,0.6-2.2-2     s6.5-5.7,6.6-6.9c0.3-0.9-3.1,0.5-4-0.4c-0.9-1,2.5-1.6,3.4-2.5c1-0.9,0.4-2.7,0.4-2.7c0.3-0.8,0.9-0.6,1.5-0.1     c0.6,0.6,1-0.2,1.2-1c0.3-0.6,0.3-1.1,1-2.1c0.9-1,4.8-4.4,6-5.6c1.2-1.1,1-0.2,1,1c-0.1,1.2-2.5,4.2-4.6,6.4     c-2.1,2.2-1.3,2.9-0.9,3.8c0.2,1,1-1.9,1.7-3.2c0.8-1.3,3.5-2,4.4-3c0.8-1,2.5-1,2.7,0c0.2,1-3.1,4.2-4.9,5.6     c-1.8,1.4-2.8,5.2-2.8,6.1c0,0.6,0.8,0.3,0.8,0.3c1.2-4.7,8.7-10.4,9.1-10.7c0.6-0.4,0.9-1.6,0-2.2c-0.6-0.6-1.9-1.4-2.2-2.2     c-0.1-0.8-0.1-1.5-0.3-5.4c-0.3-4,3.7-9.1,5.3-10.5c1.3-1.3,1.4,0.4,1.4,1c0,0.6-3,5.8-3.2,7.5c-0.1,1.5,3.8,12.6,4,13     c0,0.5-3-0.2-3.5-0.3c-0.5-0.1-7.8,8.8-8.6,9.7c-0.8,0.8-0.3,1.4,0.9,1.2c0.9-0.2,5.6-6.1,6.6-7.4c1-1.4,2.3-0.9,2.7-0.2     c0.4,0.8-6.1,7.8-6.5,8.5c-0.5,0.8,0.9,0.3,2.2-1.1c1.3-1.5,2.8-1,2.8-1s0.6-0.4,0.5-1.1c0.1-0.8,3.6-2.9,4.7-3.9     c1.2-0.9,0.6,2.5,0.2,3.3c-0.3,0.8-2.5,2.2-2.9,3.6c-0.4,1.5,1.4-0.5,2.2-1.1c0.9-0.6,1.8-1.4,2.3-0.7c0.6,0.6-1.2,4.6-2.1,5.2     c-0.9,0.6-0.7,1.9,0,2.6c0.6,0.4,1-1.6,2.1-3.6c1-1.9,2.6-1,3.2-0.5c0.6,0.6-3.9,7-5.1,9.2c-1.2,1.9,0.1,2.2,1,1.7     c0.9-0.5,6.1-8.8,6-9.6c0-0.8-1.5-2-0.5-3.1c1-1.1,1.9,1.4,1.8,2.3c-0.1,0.8,1.1,4.6,2.1,4.9c0.9,0.3,4.7,5.8,4.9,7     c0.5,1.3-0.5,1.4,0.2,2.8c0.9,1.5,1.1,3.1,0.8,8.1c-0.1,5-1.6,4.5-1.6,4.5c1,4.4-2.8,9.6-2.7,10.8c0.1,1.3-0.8,4.2-2.1,5.5     c-1.2,1-0.4,2.3,0.5,3.9c0.9,1.5,0.2,1.5-0.4,2.2c-0.6,0.6,3,7,3.3,7.2c0.4,0.3,1.4,1.7,1,2.3c-0.3,0.6,0,2.8,0.2,4.7     c0.2,1.9,0.3,5.8,0.4,7.1C399.9,347.1,397,348.2,396,348.1z M377,299.2c0-0.5,0.3-0.8,0.8-0.8c0.5,0,0.9,0.3,1,0.8     c0,0.5-0.4,0.8-0.9,0.9C377.2,300,377,299.7,377,299.2z M432.6,287.5c-0.8,1.4,0.2,2.3-0.7,3.6c-0.8,1.3-5.5,9-5.5,10.7     c-0.1,1.5,0,4.1-0.7,5.4c-0.8,1.3,0.2,1.3-0.8,2.8c-1,1.6-2.5,4.5-3.1,5.3c-0.5,0.8-2.5,4.5-5.5,5.7c0,0-1.4,2.2,0.2,1.7     c1.7-0.4,3.9-2.7,4-1.2c0.2,1.4-0.3,3.5-3,4.1c0,0-2.2,1.5-1.2,1.8c0.9,0.3,3.6-0.1,2.8,1.2c-0.8,1.3-3.4,6.1-4.7,6.1     c-1.4,0.1-5.5-0.1-5.3,0.8c0.4,0.9,1.4,0.9,2.7,0.7c1.4-0.4,3.3,0,3.1,0.8c0,0,0.8,0.5-0.4,0.6c-1.3,0.1-4.4,3.3-2.5,2.7     c1.8-0.7,3-1.9,3-1.1c0,0.6-0.9,1.3,0,1.9c0.6,0.4,2.6,0.9,1.6,2.2c-1,1-3.2,2.8-2.1,3.2c1.1,0.4,2.7-1.9,3.6-1.4     c0.8,0.4,0.1,1.7,0.9,1.7c0.8,0,2.3-1.8,3.9-1.9c1,0,3-0.7,3.7-1.4c1.3,0.8,4.7,1.7,5.4,2c0.6,0.4,0.4,0.9,1.6,1.3     c1.2,0.4,3.8,2.5,3.3,3.8c-0.4,1.3-0.7,2.6-2.2,1.5l-6.9-3.9c-1,0.2-0.9,3.1-1.4,3.8c-0.6,0.6-7.5,1.7-7,3.3     c0.5,1.5,2.7,2.1,3.3,3.1c0.5,1.3,1.8,6.8,0.6,7.1c-1,0.2-3.1,1.4-3.4-3.8c0,0-1.6-3.2-2.4-1.3c-0.7,1.8,0.1,1.9-0.9,1.8     c-1,0-0.3,1.4-1.9-0.3c-1.6-1.7-3.1-2.4-4.8-2.5c0,0-6.6-4.8-5.6-6.1c0.9-1.3,6.1-4,5-4.4c-1.1-0.4-2.3,0.7-2.2,0     c0-0.9,1.6-2.6,1.3-3.1c-0.4-0.5-1.2,1.4-2.5,2c-1.4,0.6-3.7,1.5-3.5,0c0.3-1.5,1.2-2.1,1.7-2.3c0.5-0.4,4.8-4.3,3.9-5.2     c-1-0.8-3.1-0.5-3.7-1.3c-0.6-0.8,1.4-2.7,0.3-3.5c-1-0.8-2.2-2.5-1.7-3.4c0.4-1,1.8-2.3,0.4-2.2c-1.3,0.1-4.2,0.5-2.8-0.7     c1.4-1.1,3.6-2.8,3.1-3.6c-0.4-0.8-1.6-0.9-1.4-1.8c0,0-1-0.9,2.5-2.7c3.4-1.9,4.9-3.7,3.4-3.2c-1.5,0.4-6.7,4.8-7,3.3     c-0.3-1.5,2-4.5,5.1-5.7c3.1-1.2,8.6-4.9,6.9-4.7c-1.7,0.1-8.4,4.9-9.7,4.6c-1.3-0.3,1.4-3.6,3.1-4.3c1.7-0.7,4.3-3.7,5.3-3.9     c1.3-0.4,8.1-4.8,8.8-7.7c0.7-2.9-0.2-2.1-0.4-0.8c0,0-3.3,4.7-6,5.6c-2.6,1-3.1,0.1-3.6,0.3s0.1,1.3-0.4,1.8     c-0.5,0.4-1.8,0-2.7,0.7c-0.8,0.8-2,3.2-3.1,2.5c-1.1-0.9-1.6-2.6,0.2-3.5c2.1-0.9,2.6-2.4,3.6-2.2c1.1,0.4,1.7-0.7,1.7-0.7     s5.5-4.2,6.5-4.7c0.9-0.5,6.8-8.3,7.8-8.4c1.3-0.1,0.5,0.9,1.3,0.9s4.2-5.3,5.2-5.3C432.6,285.8,433.3,286.1,432.6,287.5z      M433,278.2c-1-2.3,0.8-3.1,0.8-3.1c0.8-0.4,1.5,4.5,1.7,5.8C435.8,282.3,434.1,280.6,433,278.2z M433.5,273.1     c-0.1,0.6-2.6-1.6-3.1-2.7c-0.5-1,2.7-3.7,2.6-4.7c0-1,3.6-1.1,3.6-1.1c1,0,0,1.8-1.3,3.1C434.1,269,433.5,272.6,433.5,273.1z      M439.6,275.1c-0.3,0.6-2.3-1.7-3.4-2.7c-1.1-1,2.9-2.7,2.9-2.7C440.1,269.1,440,274.5,439.6,275.1z M439.2,267.8     c-0.8,0.6-1.5,0.1-1.8-0.4c-0.4-0.5,1.3-1.8,1.3-1.8C440.4,265.1,440,267.1,439.2,267.8z M442.4,236.9c-0.3,0.6-1.5-0.4-1.9-1.7     c-0.4-1.3-3.9-6.5-3.9-6.7c0-0.3-0.2-5.5-1-9.4s2.4-8.1,2.4-8.1c-1.7-3.4,1.4-2.7,1.4-2.7c1.9,1-0.2,2.8-0.8,3.3     c-0.4,0.6,0.1,12.1,0.1,12.1l0.5,1.7c-0.9,1.9,0.6,4.5,0.6,4.5C442.8,235.7,442.6,236.1,442.4,236.9z M444.4,242.6     c-0.2-1.3-0.2-1.9,0.2-2.7c0.3-0.8-0.1-1.5-0.1-3.6c-0.1-2.1-0.7-2.3-0.7-2.8c0-0.5,1-0.9-0.2-2.1c-1.1-1.2-2.9-4.8-3.3-6.2     c-0.4-1.3-0.2-3.3-0.3-4.1c0-0.8,0.8-0.4-0.1-3.3c-0.9-2.9,1.9-3.8,1.9-3.8c2.3-0.7,0.5,3.5,0.5,3.5s0.4,2.3,0.3,3.5     c-0.1,1.3,0.5,3.5,1.1,4.4s1.6,5.4,2.8,6.7c1,1.2,0.7,3.7,1,4c0,0.3-1.5,1.3-1.2,1.8c0.5,0.4,0.6,3.5,0.5,4.5     c-0.3,1.1,1.5,2,2.3,2.7c0.9,0.9,0.1,2.3,0.3,4c0.2,1.5-1,1.1-2.1,1.1c-1,0-0.1-0.8-0.9-1.8C445.6,248,444.6,243.8,444.4,242.6z      M450.3,265.7c-0.3,0-0.6-0.4-0.6-0.9c0-0.5,0.3-0.9,0.5-1c0.3,0,0.6,0.4,0.6,0.9C451,265.4,450.8,265.7,450.3,265.7z      M450.5,256.1c-1.2,1.1,0,1,0.1,2.6c0.1,1.5-1,1.6-2,1.6c-0.9,0-0.2-1.5-0.1-2.2c0.3-0.5-0.5,0-1.5,0.4c-1,0.4-0.5-2.8-0.2-4     c0.4-1,1.8-1,2.5-1.2s2.6-2,2.6-2c0.6-0.6,0.9,1,0.9,1.7C452.8,253.8,451.6,255,450.5,256.1z M452,229.4c-1-0.5,0.9-3.1,0.8-3.5     c0-0.5-1.8-1.2-1.1-3.2c0.5-1.9,2.6,1.8,2.9,2.2c0.4,0.5,0.7,2.1,0.7,2.1c0.6,0,0.3-3.3,0.3-3.3s-0.8-0.5-0.9-1.4     s-1.1-1.5-2.2-2.7c-1-1.2,0.5-2.1,1.4-1.9c0.9,0.3,2.4,4.3,3,5.4s-0.3,5.4-0.2,5.5c0,0.3-1.2,1-2.7,1.6     C453,230.7,452.7,229.9,452,229.4z M458.4,249.4c0,0.9-1.2,2.6-1.9,4c-0.8,1.4-1.4,0.5-1.9,0.1s0.4-1.4,0.5-3.1     c0.1-1.5,2.9-3.6,2.9-3.6C459.5,247,458.4,248.5,458.4,249.4z M455.7,201.1c-0.6-2.2,1.3-2.3,1.3-2.3c1.4,0.1,2,3.5,2.7,4.6     c0.6,1,1,2.3,0,2.3C458.5,205.6,456.3,203,455.7,201.1z M458.6,219.4c-1-2.5,1.3-2.4,1.3-2.4c2.7,1.4,1.1,3.6,0.7,4.2     s0.5,1.5,0,1.9C460.2,223.2,459.6,221.7,458.6,219.4z M461.8,223.8c0.8-0.5,3.7,6.3,3.5,6.7c-0.1,0.5-1.6-0.9-3.6-2.7     C460,226,461.8,223.8,461.8,223.8z M466.2,243.1c-0.6-1,0.3-1.5,0.4-2.7c0.1-1.1-2.4-3.6-3.3-4.5s-0.7-2.5-0.7-2.5     c-1.6-0.9-0.5-2.1-0.5-2.1c0.8-0.6,2.7,0.9,4,1.6c1.3,0.5,2.4,4.6,2.3,5.3c-0.1,0.8,0.5,4.6,0.6,5.7     C468.8,244.8,467.1,244,466.2,243.1z M476,230.2c0.9,0.9-0.8,2.6-2.1,2.3c-1.3-0.3-2.8-2.5-4.3-5.2s0.9-1.9,0.9-1.9     S475.2,229.2,476,230.2z M477,207.5c-1.3,0.2-1.7-5.3-1.5-5.9c0.4-0.6,0.1-0.8-0.4-1.5c-0.4-0.8,0.3-1.8,0.3-1.8     c1.5-0.4,1.8,2.1,1.8,2.1s-0.3,1.1,0.1,1.5C477.6,202.2,478.3,207.2,477,207.5z M477.3,190.9c-1.1-1-0.1-1.5-0.1-1.5     s-0.5-0.8-0.9-1.2c-0.5-0.4,0.9-1.9,0.9-1.9c1.3-0.5,2.7,4.6,2.8,5.7C480.1,192.7,478.3,192,477.3,190.9z M483.1,181.1     c-0.8,0-1.3-0.5-1.3-1.3s0.4-1.3,1.2-1.3c0.6,0,1.3,0.5,1.3,1.2C484.4,180.5,483.7,181.1,483.1,181.1z" fill="#ffffff"/>
			<path class="st0" d="M435.5,108.3c0,0-1.5,1.3-1,2.3c0.5,0.9,1.6,1.8,1.6,1c0.1-0.6-0.1-2.7-0.1-2.7s1.8-2.8,0.5-3.1     C436.5,106,434.9,105.3,435.5,108.3z" fill="#ffffff"/>
			<path class="st0" d="M428.5,359.9c-0.3,2.2-0.1,5.7,1.2,5.4c1.3-0.2,2.7-0.5,2.6-1.5c-0.2-1-1.6-4.4-1.6-4.4     S428.9,357.7,428.5,359.9z" fill="#ffffff"/>
		</g>
		<g>
			<path class="st0" d="M410.2,173.2c0,0-1.2,1.3-0.4,1.4C410.6,174.9,411.5,173.5,410.2,173.2z" fill="#ffffff"/>
			<path class="st0" d="M378.4,166.3c0,0-1,0.4-1.3,1.3c0,0-2.2,1.1-1.2,2.3c1,1,1.5-1.6,1.5-1.6S380.1,166.2,378.4,166.3z" fill="#ffffff"/>
			<path class="st0" d="M378.3,171.6c0,0-4.3,3.4-2.5,4.5c1.6,1,2.9-3.4,2.9-3.4S378.9,171.1,378.3,171.6z" fill="#ffffff"/>
			<path class="st0" d="M382.7,171.1c0,0-2.8-0.5,0.5,5c0,0,1.1,0.5,1-1C384.2,173.6,383.8,170.9,382.7,171.1z" fill="#ffffff"/>
			<path class="st0" d="M386.9,178.3c0,0-1.2,1.9-0.4,1.9C387.3,180.3,388.2,178.1,386.9,178.3z" fill="#ffffff"/>
			<path class="st0" d="M381.4,180c0,0-2.2,0.6-1.2,1.6c1,0.9,2.1-0.5,2.1-0.9C382.3,180.6,381.4,180,381.4,180z" fill="#ffffff"/>
			<path class="st0" d="M380.7,219.8c0,0-2.1,0.4-1,0.9c0.9,0.3,1.5-1.1,1.5-1.1s4.3-3.7,3-3.9c-1.1-0.3-3.1,1.6-3.4,2.5     c-0.1,0.8-0.3,1.5-0.3,1.5" fill="#ffffff"/>
			<path class="st0" d="M451.6,180.1c0,0,0.6,5.3,1.1,5.1c0.8-0.1,0.5-1.8,0.7-2.4C453.5,182.4,452,179.9,451.6,180.1z" fill="#ffffff"/>
			<path class="st0" d="M453.2,165.4L453.2,165.4c0.6,0.8,2.9,3.5,3.1,2.7c0.1-1.1-2.9-3.5-2.9-3.2" fill="#ffffff"/>
			<path class="st0" d="M402.2,220.6c0,0-1.2,5.9-0.3,6.3c0.8,0.4,1.3,0.3,1.2-1.6c-0.1-1.9-0.2-2.2-0.1-2.6     C403.3,222.3,403.2,220.3,402.2,220.6z" fill="#ffffff"/>
			<path class="st0" d="M396.4,337.5c0,0-0.3,0-1,1.3c-0.8,1.3-0.9,1-1.7,1.6c-0.8,0.6-2,2.2-1.2,2.3c0.6,0.1,1.8-1,2.5-1.6     C395.4,340.6,397.3,337.5,396.4,337.5z" fill="#ffffff"/>
			<path class="st0" d="M384.8,298.8c0,0.5-0.1,0.8-0.4,0.8c-0.3,0-0.5-0.3-0.5-0.8c0-0.5,0.1-0.8,0.4-0.8     C384.6,298,384.8,298.2,384.8,298.8z" fill="#ffffff"/>
			<path class="st0" d="M385.2,295.7c0,0.1,0.1,0.3,0.4,0.3c0.2,0,0.3-0.1,0.3-0.4c0-0.1-0.1-0.3-0.4-0.3     C385.5,295.2,385.2,295.4,385.2,295.7z" fill="#ffffff"/>
			<path class="st0" d="M382.3,326.8c0,0,3.9-6.8,5.5-7.9c1.5-1.1,3.7-1.7,3.9-1.2c0.1,0.5,0.2,1.4,0.2,2.1c0,0.8-0.7,3.5-0.4,4.1     c0.1,0.8,2.8,4,2.9,5c0.1,1.3-0.3,1.1,0.4,1.7c0.5,0.6,1.2,2.8,0.2,3.1s-2.3,1.8-2.6,2.2s-0.9,1-0.9,0.4c0-0.5-0.5-3.6,0.9-3.5     c0,0,0.9-1.3-1-0.5c-1.8,0.7-1.4,1.9-2.7,2c-1,0-1.8-0.7-1.3-1.3c0.6-0.5,0.9-1,0.3-1.5c-0.6-0.4-1.9-0.7-1.8-1.3     c0-0.6,0.4-1.8,2.2-2.8c1.7-1,2-2.6,2-3.7c0-0.9,0.4-2.2,0.2-2.6c0-0.3-2.2-0.7-2.7-0.2c-0.4,0.5-3.5,4.8-3.5,5.9     c0,0.8-0.9,1.9-1.3,1.6C382.4,327.8,382.3,326.8,382.3,326.8z" fill="#ffffff"/>
			<path class="st0" d="M376.4,325.8c0,0-1.7,0.7-1.2,1.4c0.5,0.8,1.3,0.9,1.3,0.4C376.3,327.2,377.7,325,376.4,325.8z" fill="#ffffff"/>
			<path class="st0" d="M380.1,320c0,0-3.6,2.5-3.4,3.3c0.5,0.8-0.3,1.3,1.3,0.3C379.8,322.8,381.5,319.5,380.1,320z" fill="#ffffff"/>
			<path class="st0" d="M384.3,313.5c0,0-1.3,2.3-1.8,2.3c-0.3,0-0.8,0.1-0.8,1s0.6,2.2,1.3,1.3c0.8-0.8,3.3-4.2,3.8-4.6     s1.8-1.6,1.2-1.6C387.3,311.9,384.5,312.4,384.3,313.5z" fill="#ffffff"/>
			<path class="st0" d="M387.1,302.1c0,0-2.3,1.8-1.4,2.3c0.8,0.4,2.2,0.3,3-0.5c0.8-0.6,3.2-2.7,2.6-3.1     C390.4,300.4,387.2,301.6,387.1,302.1z" fill="#ffffff"/>
			<path class="st0" d="M388.9,296.2c0,0-1.4,0.9-0.9,1.3c0.5,0.4-0.1,1.4,1.4,0.5c1.5-0.9,2.7-2.3,2.7-2.9c0-0.6-0.5-0.3-1.1-0.1     C390.6,295.4,388.9,296.2,388.9,296.2z" fill="#ffffff"/>
			<path class="st0" d="M369.9,273.5c0,0-0.8,0.5-0.8,1.4c0,0.9-2,2.8-1.7,3.8c0.4,1,0.9,2.5,1.3,1.5c0.4-1,0.3-2.2,0.8-3.5     C370.3,275.7,371,273.2,369.9,273.5z" fill="#ffffff"/>
			<path class="st0" d="M374,274.8c0,0-1,0.5-1,1.4c0,0.9-1.6,3.2-1.1,4.1c0.5,1,2.1-0.9,2.1-0.9s0.2,2.6,1,1.8s0.9-2.6,1.6-3.2     c0.6-0.6,1.4-2.6,0.5-1.8c-0.8,0.8-2.9,3.6-2.9,2.8C374.2,278.4,374.9,274.4,374,274.8z" fill="#ffffff"/>
			<path class="st0" d="M375.2,283.9c0,0.5-0.3,0.9-0.5,1c-0.3,0-0.5-0.4-0.5-0.9c0-0.5,0.1-0.9,0.4-1     C375,282.9,375.2,283.4,375.2,283.9z" fill="#ffffff"/>
			<path class="st0" d="M382.1,285.1c0.3-0.6,0.3-1.3-0.1-1.4c-0.4-0.1-0.9,0.2-1,0.9c-0.3,0.6-0.3,1.3,0.1,1.4     C381.5,286.1,381.9,285.6,382.1,285.1z" fill="#ffffff"/>
			<path class="st0" d="M379.5,280.2c0,0-2,2.6-2.2,3.7c-0.3,1.1-0.8,5.4-0.8,6.4c0,1-0.4,2.2,0.1,1.7c0.5-0.4,2.3-6.7,2.4-7.4     C378.8,283.8,380.5,279.3,379.5,280.2z" fill="#ffffff"/>
			<path class="st0" d="M383.9,287.7c0,0-1.5,0.6-1.6,2.7c0,2.2-1.2,4.6-0.6,4.9c0.6,0.4,1.8-0.4,1.8-1.5c0-0.9-0.2-2.6,0.3-3.2     C384.3,290.3,385.1,287.1,383.9,287.7z" fill="#ffffff"/>
			<path class="st0" d="M392.6,279.6c0,0-0.9,0.9-0.7,1.9c0.2,1.3,0.2,1.9-0.4,2.6s-0.5,1.9-1.3,2.6c-0.8,0.6-2.9,2.3-3.4,3.8     c-0.5,1.3-1.1,3.7-0.8,3.3c0.3-0.4,1.8-2.6,2.2-2.8c0.5-0.1,0.9,0,1-0.6c0-0.8,0.3-1.8,1.4-2.6c1.1-0.9,3.2-2,3.4-2.8     c0.1-0.8-0.7-3.2-0.7-3.9C393.5,280.5,393,278.8,392.6,279.6z" fill="#ffffff"/>
			<path class="st0" d="M395.9,285.4c0,0-1.5,0.6-1.4,1c0.1,0.3-0.1,1.1-0.1,1.5C394.3,288.5,397.1,286.6,395.9,285.4z" fill="#ffffff"/>
			<path class="st0" d="M393.5,288.7c0,0-2.8,0.6-3.2,1.4c-0.4,0.8-0.8,2.8,0,2.2c0.9-0.6,1.7-1.8,2.1-2.2     C392.9,289.9,395.1,288.9,393.5,288.7z" fill="#ffffff"/>
			<path class="st0" d="M276.8,241.6c0,0.5-0.5,0.8-1.2,0.9c-0.8,0-1.3-0.3-1.3-0.8c0-0.5,0.5-0.8,1.2-0.9     C276.2,240.6,276.8,241,276.8,241.6z" fill="#ffffff"/>
			<path class="st0" d="M308.1,242.3c0,0-2.3,1-2,2.3c0.2,1.3,0.6,2.5,1.5,2.3c0.9-0.4,2.7-2,2-2.4     C308.9,244,308.3,242.2,308.1,242.3z" fill="#ffffff"/>
			<path class="st0" d="M302.8,252.9c0,0.3-0.1,0.6-0.3,0.6c-0.1,0-0.4-0.3-0.4-0.6c0-0.3,0.1-0.6,0.3-0.6     C302.7,252.3,302.8,252.6,302.8,252.9z" fill="#ffffff"/>
			<path class="st0" d="M304.1,236.9c0,0-0.1,1.5-0.7,1.9c-0.6,0.4-0.8-0.1-0.9,1.9c0,2.1-1.4,2.6-1.2,4c0.2,1.4,1.9,1.8,1.9,1.3     c0-0.5-1.2-2.6-0.1-3.5c1-0.9,0.9-2.8,1.3-3.6C304.7,238.3,305,236.8,304.1,236.9z" fill="#ffffff"/>
			<path class="st0" d="M233.1,223.5c0,0-3,2.7-2.7,3.6c0.4,0.9,1,0.9,1.3,0.4C232.1,226.8,233.4,223.5,233.1,223.5z" fill="#ffffff"/>
			<path class="st0" d="M230.7,230.1c0,0.5-0.3,0.9-0.4,1c-0.3,0-0.5-0.4-0.5-0.9c0-0.6,0.3-0.9,0.4-1     C230.4,229.2,230.7,229.7,230.7,230.1z" fill="#ffffff"/>
			<path class="st0" d="M230.6,237.7c0,0.1-0.1,0.5-0.4,0.5c-0.3,0-0.5-0.1-0.5-0.4c0-0.1,0.1-0.5,0.4-0.5     C230.4,237.4,230.5,237.6,230.6,237.7z" fill="#ffffff"/>
			<path class="st0" d="M225.9,233.9c0,0-2.3-0.3-3,1.4c-0.4,1.5-1.3,1.5-1.3,2.6c-0.1,0.9,0.9,1.4,1.6,1c0.8-0.5,2.3,0,1.8,0.7     c-0.6,0.6-5.6,6.5-5.2,7s0.6,1,1.4,0.1c0.9-1,4.8-6,5.7-6.5c0.9-0.5,0-1.8-0.2-2.3C226,237.3,227.6,233.4,225.9,233.9z" fill="#ffffff"/>
			<path class="st0" d="M229.3,246.7c0,0-3.5,4.1-4.3,5.3c-0.8,1.3-2.1,2.2-2.5,2.9c-0.4,1,0.1,1.9,0.9,1s3.1-4.2,4-4.7     c1-0.5,2-1.5,2.2-2.4C229.8,248.1,231.1,245.9,229.3,246.7z" fill="#ffffff"/>
			<path class="st0" d="M230,252.7c0,0-1.2,1.1-0.8,2.1c0.4,1-0.3,1.5-0.5,2.7c-0.3,1.1,0.5,0.9,1.3,0.1c0.8-0.8,0.7-1.8,0.7-2.6     s0.1-1.1,0.3-1.8C230.7,252.5,230.4,252.2,230,252.7z" fill="#ffffff"/>
			<path class="st0" d="M227.7,259.1c0,0-6.9,6-5.9,6.4c0.8,0.4,5.2-4.4,5.6-4.9C227.7,260.1,229,258.4,227.7,259.1z" fill="#ffffff"/>
			<path class="st0" d="M229.6,261.8c-0.1,0-2.7,2.7-1.6,2.6c1,0,2.3-1,2.3-1.5C230.4,262.5,229.6,261.8,229.6,261.8z" fill="#ffffff"/>
			<path class="st0" d="M240.7,259.1c0,0-1,1.4-1.8,2.4c-0.5,1.1-0.8,0-1.8,1.6c-1,1.6-2.4,3.1-1.2,2.6c1.3-0.4,1.5-1.1,2-2.2     c0.4-0.8,0.4-1.4,1.3-1.6c0.9-0.2,1.9-0.1,1.8-1.1C241.2,260,241.7,258.6,240.7,259.1z" fill="#ffffff"/>
			<path class="st0" d="M226.4,290.8c0,0-3.6,2.9-4.4,3.2c-0.8,0.1-2.8,0.2-1.8,1.5c0.9,1.2,0.7,2.1,2.2,0.4     c1.5-1.6,3.6-3.2,3.9-3.8C226.6,291.5,227.2,290.6,226.4,290.8z" fill="#ffffff"/>
			<path class="st0" d="M231.5,295.4c0,0-1.5,0.5-1.8,1c-0.3,0.5,0.1,1.3,0.9,0.9C231.4,296.8,232.1,295.2,231.5,295.4z" fill="#ffffff"/>
			<path class="st0" d="M246.3,280.5c0,0-2.6,3.1-1.6,2.7C245.7,282.8,247.2,280.3,246.3,280.5z" fill="#ffffff"/>
			<path class="st0" d="M248.9,283.5c0,0-3.1,1.5-2.7,2.2c0.4,0.8,0.6,0.9,1.5,0.1C248.9,284.9,249.9,283.1,248.9,283.5z" fill="#ffffff"/>
			<path class="st0" d="M241.3,285.8c-0.3,0-2.3,0.1-2.5,0.9c-0.1,0.8,0.2,1.4,1.1,0.8S241.9,285.7,241.3,285.8z" fill="#ffffff"/>
		</g>
		<path class="st0" d="M365.4,266.3c0,0-2.1,2.2-1.4,2.7C364.6,269.8,366.2,267.2,365.4,266.3z" fill="#ffffff"/>
		<path class="st0" d="M380.7,278.9c0.1,0,0.4,0.1,0.4,0.1c0,0.1-0.1,0.4-0.3,0.4" fill="#ffffff"/>
		<path class="st0" d="M365.4,266.3c0,0-2.1,2.2-1.4,2.7C364.6,269.8,366.2,267.2,365.4,266.3z" fill="#ffffff"/>
		<path class="st0" d="M389.2,315.9c0,0.3-0.3,0.6-0.6,0.6c-0.3,0-0.6-0.3-0.6-0.6c0-0.3,0.3-0.5,0.6-0.5    C388.9,315.2,389.2,315.5,389.2,315.9z" fill="#ffffff"/>
	</g>
	<path class="st0" d="M557.3,409c-8,3.1-11.3,10.4-15.3,17.1c-3,5-6,9.9-8.9,15c-0.6,1-0.9,2.3-0.9,3.4c0,8.2,0.2,16.4,0.3,24.6   c0.1,4,2,6.3,5.8,7.7c0.8,0.3,1.7,1.1,2,1.9c0.6,1.6-0.1,2-1.8,2c-3.8,0-7.6,0.2-11.4,0.3c-4,0.2-8,0.4-11.9,0.7   c-2.4,0.1-4.8,0.4-7.3,0.4c-0.6,0-1.8-0.7-1.8-1.2c-0.1-1.5-1.5-3.4,0.6-4.3c4.4-1.9,6.1-5.3,6.3-10c0.1-5.3,0.6-10.7,0.8-16   c0.1-2.2,0.1-4.4-1.2-6.4c-1.8-2.9-3.3-5.9-4.9-8.8c-2-3.7-3.8-7.6-5.9-11.3c-2.2-4-4.5-8-7.2-11.8c-0.9-1.2-3-1.7-4.5-2.4   c-0.9-0.4-2.4-0.6-1.8-1.8c0.4-0.9,1.8-1.8,2.8-1.8c3.5-0.1,7,0.3,10.4,0.2c4.4,0,8.8-0.2,13.3-0.3c2.2,0,4.4-0.1,6.7,0.1   c0.7,0.1,1.3,0.8,2,1.3c-0.6,0.6-1,1.5-1.7,1.8c-1.3,0.5-3.1,0.3-3.4,2c-0.3,1.7-0.4,3.6-0.1,5.4c0.5,2.3,1.2,4.5,3.1,6.4   c1.7,1.8,2.3,4.7,3.5,7c1,1.9,2.3,3.8,3.8,6.1c2.3-4.4,4.4-8.3,6.5-12.3c1.2-2.3,2.6-4.5,3.5-6.8c1.3-3.3-0.7-6.2-4.2-6.9   c-1.1-0.2-2.9,0.5-3-1.7c-0.2-2.7-0.2-2.9,2.6-2.9c2.3,0,4.6,0.2,6.9,0.2c4.3-0.1,8.6-0.3,13-0.5c1.6-0.1,2.8,0.1,3.6,1.5   C557.3,407.6,557.3,408.3,557.3,409z" fill="#ffffff"/>
	<path class="st0" d="M142.2,446.2c4.6-9.5,8.9-18.3,13.1-27.2c0.9-2,1.8-4.1,2.2-6.2c0.2-1.2-0.5-2.6-0.8-3.9   c-0.2-0.8-0.4-1.5-0.8-2.8c1.9,0,3.5-0.1,5,0c5.1,0.2,10.1,0.5,15.2,0.7c1.7,0.1,3.4-0.3,5-0.2c0.7,0,1.3,0.8,1.9,1.3   c-0.5,0.6-0.8,1.5-1.4,1.9c-1.5,1-3.3,1.6-4.5,2.8c-1,1-1.8,2.6-1.9,4c-0.2,8.1-0.2,16.2-0.2,24.4c0,4.5,0,9.1,0.2,13.6   c0.3,5.7,0.7,11.5,1.2,17.2c0.4,3.8,3.6,5,6.5,6.1c1.2,0.5,1.4,1,1.1,1.9c-0.2,0.6-0.9,1.4-1.4,1.4c-6.2,0.2-12.5,0.7-18.7,0.4   c-4.1-0.2-8.2-0.6-12.3,0.3c-0.5,0.1-1.5-0.7-1.6-1.2c-0.1-0.8,0.1-1.9,0.5-2.6c0.4-0.7,1.3-1.2,2-1.7c4.2-2.8,4.9-7,5-11.6   c0.1-7.2,0.3-14.5,0.4-21.7c0.1-4.1,0-8.2,0-12.5c-0.7,0.2-1,0.2-1,0.3c-1.8,3.3-3.7,6.6-5.4,9.9c-2,3.9-3.9,7.9-5.8,11.9   c-2.3,4.9-4.4,9.9-6.6,14.8c-0.7,1.7-1.5,3.3-2.4,4.9c-0.2,0.4-0.8,0.9-1,0.8c-0.6-0.3-1.2-0.7-1.5-1.2c-1.6-3.3-3.1-6.8-4.7-10.1   c-2.2-4.4-4.4-8.8-6.7-13.2c-2.7-5-5.5-9.9-8.3-14.9c-0.3-0.6-0.7-1.1-1.4-1.5c-0.1,1.3-0.3,2.6-0.4,4c-0.6,9.3-1,18.5,0.1,27.8   c0.3,2.4,1,4.8,1.6,7.1c0.8,3,2.9,4.8,5.6,6c0.8,0.4,1.7,1.2,2,2c0.7,1.6,0,2.4-1.7,2.3c-5.1-0.1-10.1-0.3-15.2-0.3   c-2.7,0-5.4,0.2-8.1,0.4c-1.4,0.1-2-0.3-2.3-1.9c-0.3-1.6,0.7-1.7,1.7-2.2c1.4-0.8,3-1.7,4-2.9c3.6-4.1,4.9-9.2,5.1-14.5   c0.4-12,0.6-24,0.9-35.9c0-2.5-0.1-5-0.4-7.5c-0.6-4-3.8-6.8-7.8-6.8c-1.5,0-1.9-0.5-1.9-1.9c0-1.6,1-1.2,1.9-1.3   c3.5-0.1,7-0.3,10.5-0.4c5.4-0.1,10.8-0.2,16.2-0.3c0.4,0,0.9,0.4,1,0.7c0.2,0.4,0.2,1.2,0,1.4c-1.4,1-1.1,2.5-0.8,3.7   c1.6,6.8,4.2,13.1,7.7,19.1c1.9,3.2,3.7,6.5,5.6,9.7C139.5,442.6,140.7,444.1,142.2,446.2z" fill="#ffffff"/>
	<path class="st0" d="M472.2,441.7c0,2.8,0.1,5.7-0.1,8.5c-0.1,1-0.6,2.5-1.3,2.7c-1.6,0.6-3.5,0.6-5.3,0.8c-0.3,0-0.8-0.5-1-0.9   c-1-1.7-1.8-3.6-2.8-5.2c-0.5-0.8-1.5-1.6-2.3-1.8c-2.8-0.4-5.7-0.8-8.2,1c-0.8,0.6-1.6,1.8-1.6,2.8c0.1,6.5,0.3,13.1,0.6,19.6   c0.1,1.7,0.5,3.4,1,5c0.6,1.8,2.4,1.7,3.8,2.1c6.7,1.4,12.2-1.3,17.1-5.5c1.8-1.5,3-3.8,4.1-6c1.5-2.9,2.2-3.1,4.6-1   c2.8,2.4,3.4,5,2.1,8.5c-0.8,2.1-1,4.5-1.2,6.7c-0.3,3-2.9,4.5-5.6,3.1c-0.7-0.4-1.7-0.6-2.5-0.6c-8.1-0.1-16.3-0.2-24.4-0.1   c-7.8,0-15.6,0.2-23.4,0.4c-1.3,0-2.1-0.4-2.1-1.6c0-1.1-0.3-2.4,1.4-2.9c4.6-1.4,6.6-4.5,6.6-9.4c0.1-4.1,0.6-8.2,0.9-12.3   c0.1-2,0-3.9,0-5.9c0-3.7,0.2-7.3,0.1-11c-0.1-2.8-0.6-5.5-0.6-8.3c-0.1-4.4,0-8.8-0.1-13.2c-0.1-4.8-1.7-6.5-6.5-7.2   c-0.7-0.1-1.6-0.3-1.9-0.8c-1-1.5-0.4-2.7,1.5-2.7c6.9-0.2,13.9-0.3,20.8-0.4c7-0.1,13.9,0,20.9-0.1c2.5,0,5-0.9,7.4-0.6   c4.1,0.5,6,2.4,5.5,6.3c-0.3,2.3-0.2,4.7-0.2,7c0,2.3-1,4-2.8,4.3c-3.8,0.6-5.2,0-5.6-3c-0.9-5.8-5.8-8.8-11-8.8   c-1.6,0-3.2-0.1-4.8,0c-3.2,0.2-5,2.4-5.1,5.6c-0.1,2.7-0.5,5.4-0.5,8.1c0,4.1,0.1,8.2,0.2,12.4c0.1,1.3,0.9,2,2.3,2.3   c3.3,0.7,6.2-0.5,9.1-1.5c1-0.3,1.8-1.8,2.3-2.9c0.7-1.7,1.2-3.7,3.6-3.4c3,0.4,5.1,2.8,5.1,5.5c0,1.4-0.1,2.8-0.2,4.3   C472.1,441.7,472.1,441.7,472.2,441.7z" fill="#ffffff"/>
	<path class="st0" d="M358.6,406.3c4.8,0.2,9.6,0.6,14.4,0.6c4.7,0,9.3-0.5,14-0.6c1,0,2.2,0.3,2.9,0.9c1,0.9,0.3,2.7-1.1,2.9   c-5,0.7-6.8,4.1-7.3,7.9c-1,6.7-0.6,13.4,0.2,20.1c0.2,1.5,0.1,3.1,0.1,4.7c0,8.1,0,16.3,0,24.4c0,0.9,0.2,1.7,0.3,2.6   c0.3,2.1,0.1,4.4,2.7,5.5c3.3,1.3,6.6,2.2,9.9,0.2c0.7-0.4,1.4-0.9,2.2-1.1c3.6-0.9,5.5-3.7,7.2-6.7c1.1-1.9,2.2-3.9,3.4-5.7   c0.3-0.4,1.1-0.8,1.7-0.7c4.3,0.3,6.8,5.2,5.1,9.2c-1.1,2.7-1.3,5.8-1.9,8.7c-0.5,2.6-3.2,4.3-5.7,3.4c-4-1.5-8.1-1.3-12.2-1.2   c-3,0.1-5.9,0-8.9,0c-6.6,0-13.3,0-19.9,0.1c-2.7,0-5.5,0.2-8.2,0.5c-0.9,0.1-1.9,0.5-2-0.8c-0.1-1.2-0.8-2.8,1-3.2   c4-0.9,5.7-3.9,7.2-7.1c0.3-0.6,0.5-1.4,0.5-2.1c0.1-4.3,0.2-8.5,0.2-12.8c-0.1-9.6-0.3-19.2-0.5-28.8c-0.1-3.2,0.1-6.4-0.5-9.5   c-0.7-3.6-2.4-6.8-6.6-7.6c-1.6-0.3-1.3-1.8-1.3-2.8c0-0.4,1.3-0.7,2-1c0.3-0.1,0.7,0,1,0.1C358.6,406.2,358.6,406.2,358.6,406.3z" fill="#ffffff"/>
	<path class="st0" d="M283.7,538.3c-0.3,2.7-0.4,6.2-1.2,9.5c-1.7,6.6-7.2,10.2-14.3,9.6c-6-0.5-11.1-5.4-11.6-11.7   c-0.4-5.3-0.4-10.7,0-16c0.5-7,6.1-11.9,13-12c6.8-0.1,12.3,4.6,13.3,11.5C283.3,532,283.4,534.8,283.7,538.3z M275.4,537.7   c-0.2-2.4-0.3-4.9-0.5-7.3c-0.3-2.8-1.9-4.3-4.8-4.4c-3-0.1-5.2,1.4-5.3,4.1c-0.2,5.1-0.2,10.1,0,15.2c0.1,2.6,2.3,4.1,5.1,4.1   c2.9,0,4.7-1.6,5-4.2C275.1,542.6,275.2,540.1,275.4,537.7z" fill="#ffffff"/>
	<path class="st0" d="M420.6,526.5c0,2.5,0,4.6,0,7c3.7,0,7.4,0,11,0c2.8,0,3,0.2,3,3c0,5.9,0.5,5-5.1,5.1c-2.9,0-5.8,0-9,0   c0,2.2-0.1,4.2,0.1,6.2c0,0.4,1,1,1.5,1c3.5,0.1,7,0.1,10.6,0c1.8,0,2.6,0.4,2.5,2.4c-0.2,6.5,0.9,5.7-5.7,5.7c-4.9,0-9.8,0-14.6,0   c-1.8,0-2.5-0.6-2.5-2.5c0.1-11.2,0.1-22.5,0-33.7c0-1.7,0.5-2.4,2.3-2.4c6,0.1,12.1,0.1,18.1,0c1.7,0,2.3,0.6,2.3,2.2   c-0.1,6.7,0.7,5.8-5.6,5.9C426.6,526.5,423.7,526.5,420.6,526.5z" fill="#ffffff"/>
	<path class="st0" d="M381.5,526.7c0,2.2,0,4.4,0,6.8c3.3,0,6.6,0,9.9,0c4.1,0,4.1,0,4.1,4.1c0,0.5,0,1,0,1.4   c0.2,1.9-0.6,2.7-2.6,2.6c-3.8-0.1-7.5,0-11.4,0c0,2.5,0,4.7,0,7.2c3.1,0,6.1,0,9.1,0c5.5,0,5.4,0,5.5,5.5c0,2-0.6,2.7-2.6,2.6   c-5.9-0.1-11.8-0.1-17.7,0c-1.9,0-2.6-0.6-2.6-2.6c0.1-11.2,0.1-22.4,0-33.5c0-1.8,0.5-2.5,2.4-2.5c6,0.1,11.9,0.1,17.9,0   c1.8,0,2.4,0.6,2.4,2.4c-0.1,6.5,0.6,5.7-5.6,5.7c-2.8,0-5.6,0-8.3,0C382,526.5,381.9,526.6,381.5,526.7z" fill="#ffffff"/>
	<path class="st0" d="M222.4,537.7c0.1,2.2,0.2,4.6,0.4,6.8c0.3,3.1,1.9,4.7,4.7,4.8c2.9,0.2,4.8-1.3,5.5-4.2c0-0.1,0-0.3,0.1-0.4   c0.4-1.2,4.2-1.9,6.9-1.2c1.6,0.4,1.3,1.7,1.2,2.8c-0.9,6.3-5.6,10.8-11.8,11.1c-7.2,0.4-12.8-3.3-14.3-10   c-1.4-6.5-1.4-13.1,0-19.6c1.3-6.2,6.5-10.1,12.8-10.1c6.2,0,11.2,3.5,12.8,9c0,0.1,0.1,0.3,0.1,0.4c0.6,4,1.2,4.9-3.7,4.7   c-0.7,0-1.6,0.2-2.2-0.1c-0.7-0.3-1.7-0.9-1.9-1.6c-0.9-3.1-2.6-4.4-5.7-4.2c-2.9,0.2-4.4,1.7-4.6,4.9   C222.6,533.1,222.6,535.4,222.4,537.7z" fill="#ffffff"/>
	<path class="st0" d="M307.9,541.9c0,4.1,0,8.1,0,12.2c0,2.7-0.1,2.8-2.9,2.9c-6,0-5.3,0.4-5.3-5.2c0-10.2,0-20.5,0-30.7   c0-2.5,0.1-2.6,2.7-2.6c5.6,0,11.3,0,16.9,0c1.7,0,2.5,0.5,2.4,2.3c-0.1,1.2-0.1,2.4,0,3.7c0.1,1.6-0.6,2.2-2.2,2.2   c-3.1-0.1-6.2,0-9.4,0c-0.7,0-1.3,0-2.1,0c0,2.4,0,4.6,0,7c3.6,0,7,0,10.5,0c2.4,0,2.7,0.3,2.7,2.7c0,6.3,0.7,5.3-5.4,5.4   c-2.4,0-4.7,0-7.1,0C308.5,541.7,308.4,541.8,307.9,541.9z" fill="#ffffff"/>
	<path class="st0" d="M344.8,526.5c0,2.4,0,4.5,0,7c2.9,0,5.8,0,8.6,0c4.9,0,4.4-0.1,4.4,4.4c0,0.5,0,1.1,0,1.6   c0.2,1.6-0.6,2.1-2.2,2.1c-3.6-0.1-7.1,0-11,0c0,4.2,0,8.2,0,12.2c0,3.1-0.1,3.2-3.2,3.2c-5.5,0-5,0.5-5-5.1c0-10.2,0-20.3,0-30.5   c0-3,0-3,2.9-3c5.6,0,11.1,0.1,16.7,0c1.8,0,2.5,0.6,2.4,2.3c-0.1,1.1-0.1,2.3,0,3.5c0.1,1.8-0.7,2.4-2.5,2.3   C352.4,526.5,348.7,526.5,344.8,526.5z" fill="#ffffff"/>
	<g>
		<path class="st0" d="M448.6,519.7H446v-1.3h6.7v1.3h-2.6v7h-1.6V519.7z" fill="#ffffff"/>
		<path class="st0" d="M461,523.4c0-1.5,0-3,0.1-4H461c-0.4,1.6-1.4,4.6-2.2,7.2h-1.3c-0.6-2.2-1.7-5.7-2.1-7.3h0    c0.1,1,0.1,2.7,0.1,4.2v3.1h-1.4v-8.3h2.3c0.8,2.3,1.6,5.3,1.9,6.4h0c0.2-1,1.3-4.2,2.1-6.4h2.2v8.3H461V523.4z" fill="#ffffff"/>
	</g>
	<path class="st0" d="M273.3,406.5c9.3,0,18.6,0,27.8,0c2.2,0,4.3-0.1,6.5-0.3c6.4-0.5,12.5,0.8,18.5,2.9c1.3,0.5,2.8,0.8,4,1.5   c1.6,0.9,3.4,1.8,4.5,3.2c3.8,5.1,5,10.5,2.4,16.7c-1,2.4-1.9,4.6-3.9,6.1c-2.3,1.7-4.7,3.4-7.4,4.6c-2.3,1.1-3.6,3-2.8,5.4   c1,2.8,1.9,5.6,3,8.4c0.6,1.4,1.7,2.6,2.5,3.9c2.7,4.1,4.5,8.8,8.1,12.4c2.3,2.3,4.8,4.1,8,4.7c2.9,0.5,3.6,1.1,3.5,3   c-0.1,2.1-1.6,3.6-4.1,3.5c-2.8-0.1-5.7-0.4-8.4-1.2c-10.7-3.1-19.3-9.1-24.8-19c-1.9-3.4-4-6.6-5.8-9.9c-0.5-0.9-0.5-2.1-0.8-3.1   c-0.2-1.1,0-2.5-1.6-2.6c-1.7-0.1-3,0.8-3.2,2.4c-0.3,2.6-0.5,5.2-0.5,7.9c0,3,0.4,6.1,0.2,9.1c-0.2,5,2.1,8.5,6,11   c1.9,1.2,1.4,2.8,1.7,4.3c0,0.2-0.8,0.8-1.1,0.7c-9.2-2-18.4-1.3-27.7-1c-1.1,0-2.2,0.2-3.2,0c-0.7-0.1-1.4-0.7-2.1-1.1   c0.5-0.9,0.9-2.4,1.5-2.5c5.9-0.7,6.5-5.6,7-9.6c0.7-6.1,0.2-12.3,0.2-18.5c0-7,0-14,0.2-20.9c0.2-5.5-0.1-10.9-2.3-15.9   c-0.4-1-1.9-1.9-3-2.2C273.2,409.6,272.8,409.2,273.3,406.5z M298.8,430.4c-0.2,0-0.4,0.1-0.6,0.1c0.8,3.1,1.5,6.3,2.4,9.3   c0.5,1.7,2,2.5,3.9,2.4c3.3-0.3,6.3-1.2,8.6-3.5c2.4-2.3,5.5-4.1,5.9-7.9c0.2-1.7,0.7-3.4,0.7-5c-0.2-5.2-1.8-10.3-7.9-12.2   c-2.5-0.8-5.1-1.3-7.7-1.3c-2.9-0.1-5.4,0.6-5.4,4.8C298.7,421.5,298.8,426,298.8,430.4z" fill="#ffffff"/>
	<path class="st0" d="M224.9,456.8c-3.5,0-7,0-10.4,0c-0.6,0-1.5,0.5-1.7,1c-1.3,2.5-2.5,5.1-3.5,7.7c-0.6,1.4-0.8,3-1.2,4.5   c-0.9,3.5,0.9,6.4,4.5,7.3c0.9,0.2,1.8,0.7,2.3,1.3c0.4,0.5,0.6,1.4,0.4,2.1c-0.1,0.3-1.1,0.6-1.7,0.6c-6.9,0.1-13.8,0.2-20.7,0.1   c-0.8,0-1.9-1-2.2-1.8c-0.5-1.3,0.6-1.9,1.7-2.2c2.3-0.4,3.9-1.9,5.5-3.6c3.3-3.7,5.3-8.1,6.9-12.7c4.6-13.1,9.5-26.2,14.1-39.3   c0.7-2,0.9-4.2,1-6.4c0.2-2.2-0.5-4-2.9-5c-0.7-0.3-1.3-1.7-1.3-2.6c0-0.4,1.5-1.2,2.3-1.2c5.9-0.4,11.8-0.6,17.6-0.8   c1.4,0,3-0.1,4.3,0.4c2.3,0.9,2.8,3.3,1.1,5.1c-1.4,1.5-1.4,3.1-0.8,4.9c2.2,7.1,4.2,14.2,6.3,21.4c1.3,4.2,2.6,8.4,3.8,12.6   c1.3,4.4,2.6,8.8,3.7,13.2c1.4,5.7,4,10.6,8.7,14.2c0.7,0.6,0.8,1.9,1.2,2.9c-1,0.2-1.9,0.6-2.9,0.6c-2.4,0-4.9-0.1-7.3-0.1   c-4.7,0-9.3-0.1-14,0c-1.6,0-3.3,0.1-4.8,0.7c-1.8,0.8-2.3-0.2-2.9-1.4c-0.7-1.4,0.2-2.5,1.3-2.7c3.1-0.5,4.1-2.7,4.6-5.2   c0.2-1.1,0.3-2.3,0-3.3c-0.8-3-2-5.9-2.8-8.9c-0.5-1.8-1.7-2.7-3.5-2.8c-2.2-0.2-4.5-0.3-6.7-0.4   C224.9,456.9,224.9,456.8,224.9,456.8z M232.6,452c-2.7-8.3-5.4-16.3-8-24.4c-0.3,0-0.5,0-0.8,0c-3.2,7.9-6.5,15.9-9.9,24.3   C220.2,452,226.1,452,232.6,452z" fill="#ffffff"/>
</g>
</svg>